G04 Generated by Ultiboard 14.1 *
%FSLAX34Y34*%
%MOMM*%

%ADD10C,0.0001*%
%ADD11C,0.1270*%
%ADD12C,4.0000*%
%ADD13R,1.8051X1.8051*%
%ADD14C,0.9949*%
%ADD15C,2.8000*%
%ADD16C,1.8000*%
%ADD17C,1.7000*%
%ADD18R,1.7000X1.7000*%
%ADD19C,1.9000*%
%ADD20C,3.0000*%
%ADD21R,1.8000X1.8000*%
%ADD22C,2.1000*%
%ADD23R,2.1000X2.1000*%
%ADD24C,2.2000*%
%ADD25C,1.0000*%


G04 ColorRGB FF00CC for the following layer *
%LNSolder Mask Top*%
%LPD*%
G54D10*
G54D11*
X-2540Y-2540D02*
X-2540Y24892D01*
X-2540Y-2540D02*
X61468Y-2540D01*
X637540Y-2540D02*
X573532Y-2540D01*
X637540Y-2540D02*
X637540Y24892D01*
X637540Y271780D02*
X637540Y244348D01*
X637540Y271780D02*
X573532Y271780D01*
X-2540Y271780D02*
X61468Y271780D01*
X-2540Y271780D02*
X-2540Y244348D01*
X-52540Y-2540D02*
X-152540Y-2540D01*
X-102540Y-52540D02*
X-102540Y47460D01*
X-140040Y-2540D02*
G75*
D01*
G02X-140040Y-2540I37500J0*
G01*
X687540Y-2540D02*
X787540Y-2540D01*
X737540Y-52540D02*
X737540Y47460D01*
X700040Y-2540D02*
G75*
D01*
G02X700040Y-2540I37500J0*
G01*
X725040Y-2540D02*
G75*
D01*
G02X725040Y-2540I12500J0*
G01*
X-52540Y271780D02*
X-152540Y271780D01*
X-102540Y221780D02*
X-102540Y321780D01*
X-140040Y271780D02*
G75*
D01*
G02X-140040Y271780I37500J0*
G01*
X-127540Y271780D02*
G75*
D01*
G02X-127540Y271780I25000J0*
G01*
X-115040Y271780D02*
G75*
D01*
G02X-115040Y271780I12500J0*
G01*
G54D12*
X541020Y132080D03*
X43180Y134620D03*
G54D13*
X35560Y30480D03*
X35560Y203200D03*
G54D14*
X26535Y21455D02*
X44585Y21455D01*
X44585Y39505D01*
X26535Y39505D01*
X26535Y21455D01*D02*
X26535Y194175D02*
X44585Y194175D01*
X44585Y212225D01*
X26535Y212225D01*
X26535Y194175D01*D02*
G54D15*
X35560Y66040D03*
X35560Y238760D03*
G54D16*
X360680Y76200D03*
X360680Y40640D03*
X335280Y147320D03*
X335280Y172720D03*
X411480Y172720D03*
X335280Y198120D03*
X411480Y198120D03*
X335280Y223520D03*
X411480Y223520D03*
X452120Y17320D03*
X113840Y20320D03*
X246840Y50800D03*
X492760Y165240D03*
G54D17*
X274320Y107080D03*
G54D18*
X274320Y132080D03*
G54D19*
X218440Y81280D03*
X116840Y81280D03*
G54D20*
X142240Y146040D03*
X142240Y240040D03*
X142240Y193040D03*
X463080Y238760D03*
X513080Y238760D03*
X563080Y238760D03*
G54D21*
X411480Y147320D03*
X452120Y147320D03*
X243840Y20320D03*
X116840Y50800D03*
X492760Y15240D03*
G54D22*
X604520Y111760D03*
X604520Y137160D03*
X264160Y188760D03*
G54D23*
X604520Y162560D03*
X264160Y238760D03*
G54D24*
X543560Y25400D03*
X543560Y50800D03*
X543560Y76200D03*
G54D25*
X469900Y124460D03*
X472440Y68580D03*

M02*
