G04 Generated by Ultiboard 14.1 *
%FSLAX34Y34*%
%MOMM*%

%ADD10C,0.0001*%
%ADD11C,0.1270*%


G04 ColorRGB FF14FF for the following layer *
%LNSilkscreen Bottom*%
%LPD*%
G54D10*
G54D11*
X-2540Y-2540D02*
X-2540Y24968D01*
X-2540Y-2540D02*
X83968Y-2540D01*
X862540Y-2540D02*
X776032Y-2540D01*
X862540Y-2540D02*
X862540Y24968D01*
X862540Y272540D02*
X862540Y245032D01*
X862540Y272540D02*
X776032Y272540D01*
X-2540Y272540D02*
X83968Y272540D01*
X-2540Y272540D02*
X-2540Y245032D01*
X-52540Y-2540D02*
X-152540Y-2540D01*
X-102540Y-52540D02*
X-102540Y47460D01*
X-140040Y-2540D02*
G75*
D01*
G02X-140040Y-2540I37500J0*
G01*
X912540Y-2540D02*
X1012540Y-2540D01*
X962540Y-52540D02*
X962540Y47460D01*
X925040Y-2540D02*
G75*
D01*
G02X925040Y-2540I37500J0*
G01*
X950040Y-2540D02*
G75*
D01*
G02X950040Y-2540I12500J0*
G01*
X-52540Y272540D02*
X-152540Y272540D01*
X-102540Y222540D02*
X-102540Y322540D01*
X-140040Y272540D02*
G75*
D01*
G02X-140040Y272540I37500J0*
G01*
X-127540Y272540D02*
G75*
D01*
G02X-127540Y272540I25000J0*
G01*
X-115040Y272540D02*
G75*
D01*
G02X-115040Y272540I12500J0*
G01*

M02*
