M48
METRIC,TZ
VER,1
FMAT,2
DETECT,ON
ATC,ON
T1C4.0000
T2C1.3000
T3C0.9000
T4C1.1000
T5C1.5000
T6C1.2000
T7C0.6000
%
T1
X541020Y132080
X43180Y134620
T2
X35560Y30480
Y66040
Y203200
Y238760
X463080
X513080
X563080
T3
X360680Y76200
Y40640
X274320Y107080
Y132080
X335280Y147320
Y172720
X411480
X335280Y198120
X411480
X335280Y223520
X411480
Y147320
X452120Y17320
Y147320
X113840Y20320
X243840
X246840Y50800
X116840
X492760Y165240
Y15240
T4
X218440Y81280
X116840
X264160Y188760
Y238760
T5
X142240Y146040
Y240040
Y193040
T6
X604520Y111760
Y137160
Y162560
X543560Y25400
Y50800
Y76200
T7
X469900Y124460
X472440Y68580
M30
