G04 Generated by Ultiboard 14.1 *
%FSLAX34Y34*%
%MOMM*%

%ADD10C,0.0001*%
%ADD11C,0.2667*%
%ADD12C,0.2032*%
%ADD13C,0.1129*%
%ADD14C,0.2000*%
%ADD15C,0.0933*%
%ADD16C,0.1556*%
%ADD17C,0.1500*%
%ADD18C,0.2540*%
%ADD19C,0.1000*%
%ADD20C,0.0556*%
%ADD21C,0.0010*%
%ADD22C,0.2500*%
%ADD23C,0.1270*%
%ADD24C,0.50000*%
%ADD25C,1.00000*%


G04 ColorRGB FFFF00 for the following layer *
%LNSilkscreen Top*%
%LPD*%
G54D10*
G54D11*
X29647Y94680D02*
X39887Y94680D01*
X34767Y101537D02*
X34767Y87823D01*
X21233Y170054D02*
X24647Y170054D01*
X24647Y164911D01*
X21233Y161483D01*
X17820Y161483D01*
X14407Y164911D01*
X14407Y175197D01*
X17820Y178626D01*
X24647Y178626D01*
X29767Y161483D02*
X29767Y178626D01*
X40007Y161483D01*
X40007Y178626D01*
X45127Y161483D02*
X51953Y161483D01*
X55367Y164911D01*
X55367Y175197D01*
X51953Y178626D01*
X45127Y178626D01*
X46833Y178626D02*
X46833Y161483D01*
X86423Y121087D02*
X82994Y124500D01*
X82994Y127913D01*
X86423Y131327D01*
X88137Y131327D01*
X100137Y121087D01*
X100137Y131327D01*
X98423Y131327D01*
X82994Y136447D02*
X100137Y138153D01*
X93280Y141567D01*
X100137Y144980D01*
X82994Y146687D01*
X82994Y168873D02*
X96709Y168873D01*
X100137Y172287D01*
X88137Y184233D02*
X88137Y189353D01*
X89851Y191060D01*
X98423Y191060D01*
X100137Y189353D01*
X100137Y184233D01*
X98423Y182527D01*
X94994Y182527D01*
X93280Y184233D01*
X93280Y191060D01*
X98423Y191060D02*
X100137Y192767D01*
X96709Y197887D02*
X100137Y201300D01*
X100137Y204713D01*
X96709Y208127D01*
X91566Y197887D01*
X88137Y201300D01*
X88137Y204713D01*
X91566Y208127D01*
X96709Y223487D02*
X100137Y220073D01*
X100137Y216660D01*
X96709Y213247D01*
X91566Y213247D01*
X88137Y216660D01*
X88137Y220073D01*
X91566Y223487D01*
X93280Y221780D01*
X93280Y213247D01*
X93280Y228607D02*
X88137Y233727D01*
X88137Y235433D01*
X91566Y238847D01*
X100137Y228607D02*
X88137Y228607D01*
X122423Y129620D02*
X124137Y127913D01*
X124137Y124500D01*
X120709Y121087D01*
X115566Y121087D01*
X112137Y124500D01*
X112137Y127913D01*
X113851Y129620D01*
X120709Y136447D02*
X124137Y139860D01*
X124137Y143273D01*
X120709Y146687D01*
X115566Y146687D01*
X112137Y143273D01*
X112137Y139860D01*
X115566Y136447D01*
X120709Y136447D01*
X124137Y151807D02*
X113851Y151807D01*
X112137Y151807D01*
X113851Y151807D02*
X112137Y153513D01*
X112137Y156927D01*
X113851Y158633D01*
X124137Y158633D01*
X122423Y175700D02*
X124137Y173993D01*
X122423Y172287D01*
X106994Y172287D01*
X112137Y168873D02*
X112137Y175700D01*
X117280Y182527D02*
X112137Y187647D01*
X112137Y189353D01*
X115566Y192767D01*
X124137Y182527D02*
X112137Y182527D01*
X120709Y197887D02*
X124137Y201300D01*
X124137Y204713D01*
X120709Y208127D01*
X115566Y208127D01*
X112137Y204713D01*
X112137Y201300D01*
X115566Y197887D01*
X120709Y197887D01*
X106994Y214953D02*
X120709Y214953D01*
X124137Y218367D01*
X120709Y238847D02*
X124137Y235433D01*
X124137Y232020D01*
X120709Y228607D01*
X115566Y228607D01*
X112137Y232020D01*
X112137Y235433D01*
X115566Y238847D01*
X117280Y237140D01*
X117280Y228607D01*
X117280Y243967D02*
X112137Y249087D01*
X112137Y250793D01*
X115566Y254207D01*
X124137Y243967D02*
X112137Y243967D01*
G54D12*
X71815Y191911D02*
X64256Y191911D01*
X64256Y197556D01*
X65768Y200378D01*
X66524Y200378D01*
X68036Y197556D01*
X68036Y191911D01*
X70304Y204611D02*
X71815Y207433D01*
X71815Y210256D01*
X70304Y213078D01*
X65768Y213078D01*
X64256Y210256D01*
X64256Y207433D01*
X65768Y204611D01*
X70304Y204611D01*
X64256Y217311D02*
X71815Y218722D01*
X68792Y221544D01*
X71815Y224367D01*
X64256Y225778D01*
X71815Y238478D02*
X71815Y230011D01*
X68036Y230011D01*
X64256Y230011D01*
X64256Y238478D01*
X68036Y230011D02*
X68036Y235656D01*
X71815Y242711D02*
X64256Y242711D01*
X64256Y248356D01*
X65768Y251178D01*
X66524Y251178D01*
X68036Y248356D01*
X68036Y242711D01*
X68036Y244122D02*
X71815Y251178D01*
X53340Y256540D02*
X53340Y185420D01*
X17780Y256540D02*
X17780Y185420D01*
X17780Y256540D02*
X53340Y256540D01*
X17780Y185420D02*
X53340Y185420D01*
X64256Y19191D02*
X71815Y19191D01*
X71815Y27658D01*
X71815Y31891D02*
X67280Y31891D01*
X64256Y34713D01*
X64256Y37536D01*
X67280Y40358D01*
X71815Y40358D01*
X69548Y31891D02*
X69548Y40358D01*
X70304Y44591D02*
X71815Y47413D01*
X71815Y50236D01*
X70304Y53058D01*
X65768Y44591D01*
X64256Y47413D01*
X64256Y50236D01*
X65768Y53058D01*
X71815Y65758D02*
X71815Y57291D01*
X68036Y57291D01*
X64256Y57291D01*
X64256Y65758D01*
X68036Y57291D02*
X68036Y62936D01*
X71815Y69991D02*
X64256Y69991D01*
X64256Y75636D01*
X65768Y78458D01*
X66524Y78458D01*
X68036Y75636D01*
X68036Y69991D01*
X68036Y71402D02*
X71815Y78458D01*
X17780Y83820D02*
X53340Y83820D01*
X53340Y12700D01*
X17780Y83820D02*
X17780Y12700D01*
X53340Y12700D01*
X600851Y77984D02*
X600851Y70425D01*
X609318Y70425D01*
X622018Y70425D02*
X613551Y70425D01*
X613551Y74204D01*
X613551Y77984D01*
X622018Y77984D01*
X613551Y74204D02*
X619196Y74204D01*
X626251Y70425D02*
X631896Y70425D01*
X634718Y71936D01*
X634718Y76472D01*
X631896Y77984D01*
X626251Y77984D01*
X627662Y77984D02*
X627662Y70425D01*
X640362Y76472D02*
X643184Y77984D01*
X643184Y70425D01*
X638951Y70425D02*
X647418Y70425D01*
X610023Y27517D02*
X610023Y23283D01*
X612140Y23283D02*
X612324Y23291D01*
X612508Y23315D01*
X612688Y23355D01*
X612864Y23411D01*
X613035Y23482D01*
X613198Y23567D01*
X613354Y23666D01*
X613501Y23779D01*
X613637Y23903D01*
X613761Y24039D01*
X613874Y24186D01*
X613973Y24342D01*
X614058Y24505D01*
X614129Y24676D01*
X614185Y24852D01*
X614225Y25032D01*
X614249Y25216D01*
X614257Y25400D01*
X614249Y25584D01*
X614225Y25768D01*
X614185Y25948D01*
X614129Y26124D01*
X614058Y26295D01*
X613973Y26458D01*
X613874Y26614D01*
X613761Y26761D01*
X613637Y26897D01*
X613501Y27021D01*
X613354Y27134D01*
X613198Y27233D01*
X613035Y27318D01*
X612864Y27389D01*
X612688Y27445D01*
X612508Y27485D01*
X612324Y27509D01*
X612140Y27517D01*
X605790Y27517D02*
X612140Y27517D01*
X607907Y52917D02*
X607723Y52909D01*
X607539Y52885D01*
X607359Y52845D01*
X607183Y52789D01*
X607012Y52718D01*
X606849Y52633D01*
X606693Y52534D01*
X606546Y52421D01*
X606410Y52297D01*
X606286Y52161D01*
X606173Y52014D01*
X606074Y51858D01*
X605989Y51695D01*
X605918Y51524D01*
X605862Y51348D01*
X605822Y51168D01*
X605798Y50984D01*
X605790Y50800D01*
X605798Y50616D01*
X605822Y50432D01*
X605862Y50252D01*
X605918Y50076D01*
X605989Y49905D01*
X606074Y49742D01*
X606173Y49586D01*
X606286Y49439D01*
X606410Y49303D01*
X606546Y49179D01*
X606693Y49066D01*
X606849Y48967D01*
X607012Y48882D01*
X607183Y48811D01*
X607359Y48755D01*
X607539Y48715D01*
X607723Y48691D01*
X607907Y48683D01*
X607907Y48683D01*
X607907Y52917D02*
X612140Y52917D01*
X612140Y48683D02*
X612324Y48691D01*
X612508Y48715D01*
X612688Y48755D01*
X612864Y48811D01*
X613035Y48882D01*
X613198Y48967D01*
X613354Y49066D01*
X613501Y49179D01*
X613637Y49303D01*
X613761Y49439D01*
X613874Y49586D01*
X613973Y49742D01*
X614058Y49905D01*
X614129Y50076D01*
X614185Y50252D01*
X614225Y50432D01*
X614249Y50616D01*
X614257Y50800D01*
X614249Y50984D01*
X614225Y51168D01*
X614185Y51348D01*
X614129Y51524D01*
X614058Y51695D01*
X613973Y51858D01*
X613874Y52014D01*
X613761Y52161D01*
X613637Y52297D01*
X613501Y52421D01*
X613354Y52534D01*
X613198Y52633D01*
X613035Y52718D01*
X612864Y52789D01*
X612688Y52845D01*
X612508Y52885D01*
X612324Y52909D01*
X612140Y52917D01*
X605790Y23283D02*
X612140Y23283D01*
X186240Y85020D02*
X186240Y108020D01*
X136240Y108020D02*
X136240Y85020D01*
X186240Y108020D02*
X136240Y108020D01*
X136240Y85020D02*
X186240Y85020D01*
X144800Y261620D02*
X144800Y134620D01*
X210800Y134620D01*
X210800Y261620D01*
X144800Y261620D01*
X678940Y11480D02*
X773940Y11480D01*
X773940Y49480D01*
X678940Y49480D01*
X678940Y11480D01*
X493400Y29120D02*
X573400Y29120D01*
X573400Y113120D01*
X493400Y113120D01*
X493400Y29120D01*
X641360Y223840D02*
X801360Y223840D01*
X801360Y263840D01*
X641360Y263840D01*
X641360Y223840D01*
X681716Y88060D02*
X681716Y98060D01*
X685698Y98060D01*
X687689Y96060D01*
X687689Y95060D01*
X685698Y93060D01*
X681716Y93060D01*
X682711Y93060D02*
X687689Y88060D01*
X696649Y98060D02*
X690676Y98060D01*
X690676Y94060D01*
X694658Y94060D01*
X696649Y92060D01*
X696649Y90060D01*
X694658Y88060D01*
X690676Y88060D01*
X699636Y88060D02*
X705609Y88060D01*
X709591Y97060D02*
X710587Y98060D01*
X712578Y98060D01*
X714569Y96060D01*
X714569Y94060D01*
X713573Y93060D01*
X714569Y92060D01*
X714569Y90060D01*
X712578Y88060D01*
X710587Y88060D01*
X709591Y89060D01*
X710587Y93060D02*
X713573Y93060D01*
X717556Y98060D02*
X718551Y88060D01*
X720542Y92060D01*
X722533Y88060D01*
X723529Y98060D01*
X426069Y24020D02*
X424078Y22020D01*
X422087Y22020D01*
X420096Y24020D01*
X420096Y30020D01*
X422087Y32020D01*
X424078Y32020D01*
X426069Y30020D01*
X429056Y30020D02*
X431047Y32020D01*
X433038Y32020D01*
X435029Y30020D01*
X435029Y29020D01*
X429056Y22020D01*
X435029Y22020D01*
X435029Y23020D01*
X324920Y67720D02*
G75*
D01*
G02X324920Y67720I50000J0*
G01*
X319389Y11320D02*
X317398Y9320D01*
X315407Y9320D01*
X313416Y11320D01*
X313416Y17320D01*
X315407Y19320D01*
X317398Y19320D01*
X319389Y17320D01*
X323371Y17320D02*
X325362Y19320D01*
X325362Y9320D01*
X322376Y9320D02*
X328349Y9320D01*
X254820Y36560D02*
G75*
D01*
G02X254820Y36560I31500J0*
G01*
X319389Y133240D02*
X317398Y131240D01*
X315407Y131240D01*
X313416Y133240D01*
X313416Y139240D01*
X315407Y141240D01*
X317398Y141240D01*
X319389Y139240D01*
X323371Y140240D02*
X324367Y141240D01*
X326358Y141240D01*
X328349Y139240D01*
X328349Y137240D01*
X327353Y136240D01*
X328349Y135240D01*
X328349Y133240D01*
X326358Y131240D01*
X324367Y131240D01*
X323371Y132240D01*
X324367Y136240D02*
X327353Y136240D01*
X254820Y107680D02*
G75*
D01*
G02X254820Y107680I31500J0*
G01*
X181884Y56720D02*
X181884Y46720D01*
X177902Y46720D01*
X175911Y48720D01*
X175911Y49720D01*
X177902Y51720D01*
X181884Y51720D01*
X180889Y51720D02*
X175911Y56720D01*
X172924Y48720D02*
X170933Y46720D01*
X168942Y46720D01*
X166951Y48720D01*
X166951Y49720D01*
X172924Y56720D01*
X166951Y56720D01*
X166951Y55720D01*
X162666Y15590D02*
X162666Y25590D01*
X166648Y25590D01*
X168639Y23590D01*
X168639Y22590D01*
X166648Y20590D01*
X162666Y20590D01*
X163661Y20590D02*
X168639Y15590D01*
X172621Y23590D02*
X174612Y25590D01*
X174612Y15590D01*
X171626Y15590D02*
X177599Y15590D01*
X709656Y169340D02*
X709656Y179340D01*
X713638Y179340D01*
X715629Y177340D01*
X715629Y176340D01*
X713638Y174340D01*
X709656Y174340D01*
X710651Y174340D02*
X715629Y169340D01*
X723593Y179340D02*
X720607Y179340D01*
X718616Y177340D01*
X718616Y173340D01*
X718616Y171340D01*
X720607Y169340D01*
X722598Y169340D01*
X724589Y171340D01*
X724589Y173340D01*
X722598Y175340D01*
X720607Y175340D01*
X718616Y173340D01*
X549636Y159020D02*
X549636Y151020D01*
X551627Y149020D01*
X553618Y149020D01*
X555609Y151020D01*
X555609Y159020D01*
X559591Y157020D02*
X561582Y159020D01*
X561582Y149020D01*
X558596Y149020D02*
X564569Y149020D01*
X610860Y238190D02*
X501660Y238190D01*
X501660Y183450D02*
X610860Y183450D01*
X501660Y238190D02*
X501660Y183450D01*
X610860Y183450D02*
X610860Y238190D01*
G54D13*
X825709Y72028D02*
X827154Y70576D01*
X828599Y70576D01*
X830044Y72028D01*
X830044Y76382D01*
X828599Y77833D01*
X827154Y77833D01*
X825709Y76382D01*
X825709Y72028D01*
X828599Y72028D02*
X830044Y70576D01*
X832934Y76382D02*
X834379Y77833D01*
X834379Y70576D01*
X832211Y70576D02*
X836546Y70576D01*
G54D14*
X807640Y182080D02*
X852362Y182080D01*
X852362Y82380D01*
X807640Y82380D01*
X807640Y182080D01*
X596900Y38100D02*
G75*
D01*
G02X596900Y38100I27940J0*
G01*
X481200Y198840D02*
X433200Y198840D01*
X433200Y112840D01*
X481200Y112840D01*
X481200Y198840D01*
X457200Y110840D02*
X457200Y81840D01*
X457200Y200840D02*
X457200Y229840D01*
X298860Y157280D02*
X298860Y259280D01*
X324860Y157280D02*
X298860Y157280D01*
X298860Y259280D02*
X324860Y259280D01*
G54D15*
X150856Y120540D02*
X152847Y118540D01*
X154838Y118540D01*
X156829Y120540D01*
X150856Y126540D01*
X152847Y128540D01*
X154838Y128540D01*
X156829Y126540D01*
X159816Y128540D02*
X160811Y118540D01*
X162802Y122540D01*
X164793Y118540D01*
X165789Y128540D01*
X170767Y118540D02*
X172758Y118540D01*
X170767Y128540D02*
X172758Y128540D01*
X171762Y118540D02*
X171762Y128540D01*
X180722Y118540D02*
X180722Y128540D01*
X177736Y128540D02*
X183709Y128540D01*
X192669Y120540D02*
X190678Y118540D01*
X188687Y118540D01*
X186696Y120540D01*
X186696Y126540D01*
X188687Y128540D01*
X190678Y128540D01*
X192669Y126540D01*
X195656Y118540D02*
X195656Y128540D01*
X201629Y118540D02*
X201629Y128540D01*
X195656Y123540D02*
X201629Y123540D01*
X205611Y126540D02*
X207602Y128540D01*
X207602Y118540D01*
X204616Y118540D02*
X210589Y118540D01*
X783316Y27100D02*
X783316Y37100D01*
X787298Y37100D01*
X789289Y35100D01*
X789289Y34100D01*
X787298Y32100D01*
X783316Y32100D01*
X784311Y32100D02*
X789289Y27100D01*
X798249Y31100D02*
X792276Y31100D01*
X797253Y37100D01*
X797253Y27100D01*
X796258Y27100D02*
X798249Y27100D01*
X478516Y21860D02*
X478516Y11860D01*
X484489Y11860D01*
X488471Y19860D02*
X490462Y21860D01*
X490462Y11860D01*
X487476Y11860D02*
X493449Y11860D01*
X714736Y204900D02*
X714736Y214900D01*
X718718Y214900D01*
X720709Y212900D01*
X720709Y211900D01*
X718718Y209900D01*
X714736Y209900D01*
X715731Y209900D02*
X720709Y204900D01*
X724691Y213900D02*
X725687Y214900D01*
X727678Y214900D01*
X729669Y212900D01*
X729669Y210900D01*
X728673Y209900D01*
X729669Y208900D01*
X729669Y206900D01*
X727678Y204900D01*
X725687Y204900D01*
X724691Y205900D01*
X725687Y209900D02*
X728673Y209900D01*
G54D16*
X829740Y255647D02*
X829740Y258633D01*
X831740Y260624D01*
X837740Y260624D01*
X839740Y258633D01*
X839740Y256642D01*
X837740Y254651D01*
X832740Y254651D01*
X832740Y258633D01*
X836740Y258633D01*
X836740Y256642D01*
X833740Y256642D01*
X829740Y242704D02*
X839740Y242704D01*
X834740Y239718D01*
X839740Y236731D01*
X829740Y236731D01*
X836740Y232749D02*
X836740Y229762D01*
X835740Y228767D01*
X830740Y228767D01*
X829740Y229762D01*
X829740Y232749D01*
X830740Y233744D01*
X832740Y233744D01*
X833740Y232749D01*
X833740Y228767D01*
X830740Y228767D02*
X829740Y227771D01*
X833740Y224784D02*
X836740Y221798D01*
X836740Y220802D01*
X834740Y218811D01*
X829740Y224784D02*
X836740Y224784D01*
X830740Y210847D02*
X829740Y211842D01*
X830740Y212838D01*
X839740Y212838D01*
X836740Y214829D02*
X836740Y210847D01*
X829740Y203878D02*
X835740Y203878D01*
X837740Y203878D02*
X838740Y203878D01*
X829740Y197904D02*
X835740Y197904D01*
X836740Y197904D01*
X835740Y197904D02*
X836740Y196909D01*
X836740Y194918D01*
X835740Y193922D01*
X829740Y193922D01*
X815740Y242704D02*
X825740Y242704D01*
X820740Y242704D02*
X820740Y241709D01*
X825740Y236731D01*
X820740Y241709D02*
X815740Y236731D01*
X819740Y233744D02*
X822740Y230758D01*
X822740Y229762D01*
X820740Y227771D01*
X815740Y233744D02*
X822740Y233744D01*
X816740Y219807D02*
X815740Y220802D01*
X815740Y222793D01*
X817740Y224784D01*
X820740Y224784D01*
X822740Y222793D01*
X822740Y220802D01*
X821740Y219807D01*
X815740Y215824D02*
X821740Y215824D01*
X822740Y215824D01*
X821740Y215824D02*
X822740Y214829D01*
X822740Y213833D01*
X821740Y212838D01*
X822740Y211842D01*
X822740Y210847D01*
X821740Y209851D01*
X815740Y209851D01*
X821740Y212838D02*
X815740Y212838D01*
X822740Y205869D02*
X822740Y202882D01*
X821740Y201887D01*
X816740Y201887D01*
X815740Y202882D01*
X815740Y205869D01*
X816740Y206864D01*
X818740Y206864D01*
X819740Y205869D01*
X819740Y201887D01*
X816740Y201887D02*
X815740Y200891D01*
X831660Y47264D02*
X824660Y44278D01*
X831660Y41291D01*
X824660Y35318D02*
X825660Y35318D01*
X832660Y29344D02*
X834660Y27353D01*
X834660Y25362D01*
X832660Y23371D01*
X831660Y23371D01*
X824660Y29344D01*
X824660Y23371D01*
X825660Y23371D01*
X448740Y163414D02*
X448740Y159432D01*
X450740Y157441D01*
X456740Y157441D01*
X458740Y159432D01*
X458740Y163414D01*
X458740Y162419D02*
X448740Y162419D01*
X457740Y153459D02*
X458740Y152463D01*
X458740Y150472D01*
X456740Y148481D01*
X454740Y148481D01*
X453740Y149477D01*
X452740Y148481D01*
X450740Y148481D01*
X448740Y150472D01*
X448740Y152463D01*
X449740Y153459D01*
X453740Y152463D02*
X453740Y149477D01*
X402316Y148860D02*
X402316Y140860D01*
X404307Y138860D01*
X406298Y138860D01*
X408289Y140860D01*
X408289Y148860D01*
X412271Y147860D02*
X413267Y148860D01*
X415258Y148860D01*
X417249Y146860D01*
X417249Y144860D01*
X416253Y143860D01*
X417249Y142860D01*
X417249Y140860D01*
X415258Y138860D01*
X413267Y138860D01*
X412271Y139860D01*
X413267Y143860D02*
X416253Y143860D01*
G54D17*
X152047Y92114D02*
X156313Y92114D01*
X158447Y94257D01*
X158447Y100686D01*
X156313Y102829D01*
X152047Y102829D01*
X153113Y102829D02*
X153113Y92114D01*
X162713Y100686D02*
X164847Y102829D01*
X164847Y92114D01*
X161647Y92114D02*
X168047Y92114D01*
G54D18*
X187240Y96520D02*
X193240Y96520D01*
X129240Y96520D02*
X135740Y96520D01*
G54D19*
G36*
X177249Y85668D02*
X177249Y108080D01*
X185249Y108080D01*
X185249Y85668D01*
X177249Y85668D01*
G37*
X659920Y104340D02*
X749920Y104340D01*
X749920Y78840D01*
X659920Y78840D01*
X659920Y104340D01*
X639920Y91440D02*
X659920Y91440D01*
X749920Y91440D02*
X769920Y91440D01*
X136680Y63700D02*
X206680Y63700D01*
X206680Y38200D01*
X136680Y38200D01*
X136680Y63700D01*
X120680Y50800D02*
X136680Y50800D01*
X206680Y50800D02*
X223680Y50800D01*
X136680Y33220D02*
X206680Y33220D01*
X206680Y7720D01*
X136680Y7720D01*
X136680Y33220D01*
X120680Y20320D02*
X136680Y20320D01*
X206680Y20320D02*
X223680Y20320D01*
X752320Y159820D02*
X682320Y159820D01*
X682320Y185320D01*
X752320Y185320D01*
X752320Y159820D01*
X768320Y172720D02*
X752320Y172720D01*
X682320Y172720D02*
X665320Y172720D01*
G54D20*
X129584Y94434D02*
X129584Y92291D01*
X128873Y90862D01*
X128161Y90862D01*
X127450Y92291D01*
X127450Y94434D01*
X129584Y93362D02*
X127450Y93362D01*
X197234Y93765D02*
X197949Y93054D01*
X197949Y92343D01*
X197234Y91632D01*
X195091Y91632D01*
X194377Y92343D01*
X194377Y93054D01*
X195091Y93765D01*
G54D21*
G36*
X433680Y183600D02*
X433680Y191600D01*
X481680Y191600D01*
X481680Y183600D01*
X433680Y183600D01*
G37*
G36*
X397351Y53724D02*
X397351Y53724D01*
X399812Y39544D01*
X399812Y53724D01*
X397351Y53724D01*
D02*
G37*
X399812Y39544D01*
X399812Y53724D01*
X397351Y53724D01*
G36*
X399812Y39544D02*
X399812Y39544D01*
X397351Y53724D01*
X397351Y47879D01*
X399812Y39544D01*
D02*
G37*
X397351Y53724D01*
X397351Y47879D01*
X399812Y39544D01*
G36*
X397351Y47879D02*
X397351Y47879D01*
X397351Y45389D01*
X399812Y39544D01*
X397351Y47879D01*
D02*
G37*
X397351Y45389D01*
X399812Y39544D01*
X397351Y47879D01*
G36*
X397351Y45389D02*
X397351Y45389D01*
X397351Y47879D01*
X391506Y47879D01*
X397351Y45389D01*
D02*
G37*
X397351Y47879D01*
X391506Y47879D01*
X397351Y45389D01*
G36*
X391506Y47879D02*
X391506Y47879D01*
X391506Y45389D01*
X397351Y45389D01*
X391506Y47879D01*
D02*
G37*
X391506Y45389D01*
X397351Y45389D01*
X391506Y47879D01*
G36*
X399812Y45389D02*
X399812Y45389D01*
X405700Y45389D01*
X399812Y47879D01*
X399812Y45389D01*
D02*
G37*
X405700Y45389D01*
X399812Y47879D01*
X399812Y45389D01*
G36*
X399812Y45389D01*
X399812Y53724D01*
X399812Y45389D01*
D02*
G37*
X399812Y53724D01*
X399812Y45389D01*
G36*
X399812Y45389D01*
X399812Y53724D01*
X399812Y39544D01*
X399812Y45389D01*
D02*
G37*
X399812Y53724D01*
X399812Y39544D01*
X399812Y45389D01*
G36*
X399812Y47879D02*
X399812Y47879D01*
X405700Y45389D01*
X405700Y47879D01*
X399812Y47879D01*
D02*
G37*
X405700Y45389D01*
X405700Y47879D01*
X399812Y47879D01*
G36*
X399812Y39544D02*
X399812Y39544D01*
X397351Y45389D01*
X397351Y39544D01*
X399812Y39544D01*
D02*
G37*
X397351Y45389D01*
X397351Y39544D01*
X399812Y39544D01*
G36*
X272989Y22974D02*
X272989Y22974D01*
X275479Y8780D01*
X275479Y22974D01*
X272989Y22974D01*
D02*
G37*
X275479Y8780D01*
X275479Y22974D01*
X272989Y22974D01*
G36*
X275479Y8780D02*
X275479Y8780D01*
X272989Y22974D01*
X272989Y17129D01*
X275479Y8780D01*
D02*
G37*
X272989Y22974D01*
X272989Y17129D01*
X275479Y8780D01*
G36*
X272989Y17129D02*
X272989Y17129D01*
X272989Y14668D01*
X275479Y8780D01*
X272989Y17129D01*
D02*
G37*
X272989Y14668D01*
X275479Y8780D01*
X272989Y17129D01*
G36*
X272989Y14668D02*
X272989Y14668D01*
X272989Y17129D01*
X267144Y17129D01*
X272989Y14668D01*
D02*
G37*
X272989Y17129D01*
X267144Y17129D01*
X272989Y14668D01*
G36*
X267144Y17129D02*
X267144Y17129D01*
X267144Y14668D01*
X272989Y14668D01*
X267144Y17129D01*
D02*
G37*
X267144Y14668D01*
X272989Y14668D01*
X267144Y17129D01*
G36*
X275479Y14668D02*
X275479Y14668D01*
X281324Y14668D01*
X275479Y17129D01*
X275479Y14668D01*
D02*
G37*
X281324Y14668D01*
X275479Y17129D01*
X275479Y14668D01*
G36*
X275479Y14668D01*
X275479Y22974D01*
X275479Y14668D01*
D02*
G37*
X275479Y22974D01*
X275479Y14668D01*
G36*
X275479Y14668D01*
X275479Y22974D01*
X275479Y8780D01*
X275479Y14668D01*
D02*
G37*
X275479Y22974D01*
X275479Y8780D01*
X275479Y14668D01*
G36*
X275479Y17129D02*
X275479Y17129D01*
X281324Y14668D01*
X281324Y17129D01*
X275479Y17129D01*
D02*
G37*
X281324Y14668D01*
X281324Y17129D01*
X275479Y17129D01*
G36*
X275479Y8780D02*
X275479Y8780D01*
X272989Y14668D01*
X272989Y8780D01*
X275479Y8780D01*
D02*
G37*
X272989Y14668D01*
X272989Y8780D01*
X275479Y8780D01*
G36*
X272989Y94094D02*
X272989Y94094D01*
X275479Y79900D01*
X275479Y94094D01*
X272989Y94094D01*
D02*
G37*
X275479Y79900D01*
X275479Y94094D01*
X272989Y94094D01*
G36*
X275479Y79900D02*
X275479Y79900D01*
X272989Y94094D01*
X272989Y88249D01*
X275479Y79900D01*
D02*
G37*
X272989Y94094D01*
X272989Y88249D01*
X275479Y79900D01*
G36*
X272989Y88249D02*
X272989Y88249D01*
X272989Y85788D01*
X275479Y79900D01*
X272989Y88249D01*
D02*
G37*
X272989Y85788D01*
X275479Y79900D01*
X272989Y88249D01*
G36*
X272989Y85788D02*
X272989Y85788D01*
X272989Y88249D01*
X267144Y88249D01*
X272989Y85788D01*
D02*
G37*
X272989Y88249D01*
X267144Y88249D01*
X272989Y85788D01*
G36*
X267144Y88249D02*
X267144Y88249D01*
X267144Y85788D01*
X272989Y85788D01*
X267144Y88249D01*
D02*
G37*
X267144Y85788D01*
X272989Y85788D01*
X267144Y88249D01*
G36*
X275479Y85788D02*
X275479Y85788D01*
X281324Y85788D01*
X275479Y88249D01*
X275479Y85788D01*
D02*
G37*
X281324Y85788D01*
X275479Y88249D01*
X275479Y85788D01*
G36*
X275479Y85788D01*
X275479Y94094D01*
X275479Y85788D01*
D02*
G37*
X275479Y94094D01*
X275479Y85788D01*
G36*
X275479Y85788D01*
X275479Y94094D01*
X275479Y79900D01*
X275479Y85788D01*
D02*
G37*
X275479Y94094D01*
X275479Y79900D01*
X275479Y85788D01*
G36*
X275479Y88249D02*
X275479Y88249D01*
X281324Y85788D01*
X281324Y88249D01*
X275479Y88249D01*
D02*
G37*
X281324Y85788D01*
X281324Y88249D01*
X275479Y88249D01*
G36*
X275479Y79900D02*
X275479Y79900D01*
X272989Y85788D01*
X272989Y79900D01*
X275479Y79900D01*
D02*
G37*
X272989Y85788D01*
X272989Y79900D01*
X275479Y79900D01*
G54D22*
X258610Y252280D02*
G75*
D01*
G02X258610Y252280I1250J0*
G01*
G54D23*
X-2540Y-2540D02*
X-2540Y24968D01*
X-2540Y-2540D02*
X83968Y-2540D01*
X862540Y-2540D02*
X776032Y-2540D01*
X862540Y-2540D02*
X862540Y24968D01*
X862540Y272540D02*
X862540Y245032D01*
X862540Y272540D02*
X776032Y272540D01*
X-2540Y272540D02*
X83968Y272540D01*
X-2540Y272540D02*
X-2540Y245032D01*
X-52540Y-2540D02*
X-152540Y-2540D01*
X-102540Y-52540D02*
X-102540Y47460D01*
X-140040Y-2540D02*
G75*
D01*
G02X-140040Y-2540I37500J0*
G01*
X912540Y-2540D02*
X1012540Y-2540D01*
X962540Y-52540D02*
X962540Y47460D01*
X925040Y-2540D02*
G75*
D01*
G02X925040Y-2540I37500J0*
G01*
X950040Y-2540D02*
G75*
D01*
G02X950040Y-2540I12500J0*
G01*
X-52540Y272540D02*
X-152540Y272540D01*
X-102540Y222540D02*
X-102540Y322540D01*
X-140040Y272540D02*
G75*
D01*
G02X-140040Y272540I37500J0*
G01*
X-127540Y272540D02*
G75*
D01*
G02X-127540Y272540I25000J0*
G01*
X-115040Y272540D02*
G75*
D01*
G02X-115040Y272540I12500J0*
G01*
G54D24*
X505500Y167640D03*
G54D25*
X510620Y193040D03*

M02*
