G04 Generated by Ultiboard 14.1 *
%FSLAX34Y34*%
%MOMM*%

%ADD10C,0.0001*%
%ADD11C,0.1270*%
%ADD12C,4.0000*%
%ADD13R,1.8051X1.8051*%
%ADD14C,0.9949*%
%ADD15C,2.8000*%
%ADD16C,2.1000*%
%ADD17R,2.1000X2.1000*%
%ADD18C,1.0000*%
%ADD19C,1.8000*%
%ADD20C,1.9000*%
%ADD21R,2.6000X2.6000*%
%ADD22C,3.0000*%
%ADD23C,2.2000*%
%ADD24C,1.7000*%
%ADD25C,1.4000*%
%ADD26C,1.2000*%


G04 ColorRGB 9900CC for the following layer *
%LNSolder Mask Bottom*%
%LPD*%
G54D10*
G54D11*
X-2540Y-2540D02*
X-2540Y24968D01*
X-2540Y-2540D02*
X83968Y-2540D01*
X862540Y-2540D02*
X776032Y-2540D01*
X862540Y-2540D02*
X862540Y24968D01*
X862540Y272540D02*
X862540Y245032D01*
X862540Y272540D02*
X776032Y272540D01*
X-2540Y272540D02*
X83968Y272540D01*
X-2540Y272540D02*
X-2540Y245032D01*
X-52540Y-2540D02*
X-152540Y-2540D01*
X-102540Y-52540D02*
X-102540Y47460D01*
X-140040Y-2540D02*
G75*
D01*
G02X-140040Y-2540I37500J0*
G01*
X912540Y-2540D02*
X1012540Y-2540D01*
X962540Y-52540D02*
X962540Y47460D01*
X925040Y-2540D02*
G75*
D01*
G02X925040Y-2540I37500J0*
G01*
X950040Y-2540D02*
G75*
D01*
G02X950040Y-2540I12500J0*
G01*
X-52540Y272540D02*
X-152540Y272540D01*
X-102540Y222540D02*
X-102540Y322540D01*
X-140040Y272540D02*
G75*
D01*
G02X-140040Y272540I37500J0*
G01*
X-127540Y272540D02*
G75*
D01*
G02X-127540Y272540I25000J0*
G01*
X-115040Y272540D02*
G75*
D01*
G02X-115040Y272540I12500J0*
G01*
G54D12*
X43180Y134620D03*
X762000Y132080D03*
G54D13*
X35560Y203200D03*
X35560Y30480D03*
G54D14*
X26535Y194175D02*
X44585Y194175D01*
X44585Y212225D01*
X26535Y212225D01*
X26535Y194175D01*D02*
X26535Y21455D02*
X44585Y21455D01*
X44585Y39505D01*
X26535Y39505D01*
X26535Y21455D01*D02*
G54D15*
X35560Y238760D03*
X35560Y66040D03*
X457200Y67890D03*
G54D16*
X828040Y106680D03*
X828040Y132080D03*
X375920Y95720D03*
X375920Y45720D03*
G54D17*
X828040Y157480D03*
G54D18*
X312420Y236220D03*
X269240Y149860D03*
G54D19*
X624840Y22860D03*
X624840Y53340D03*
X236680Y50800D03*
X106680Y50800D03*
X236680Y20320D03*
X106680Y20320D03*
X518160Y248920D03*
X543560Y248920D03*
X543560Y172720D03*
X568960Y248920D03*
X568960Y172720D03*
X594360Y248920D03*
X594360Y172720D03*
X518160Y172720D03*
X652320Y187960D03*
X782320Y187960D03*
X779920Y81280D03*
X629920Y81280D03*
G54D20*
X111760Y96520D03*
X213360Y96520D03*
G54D21*
X457200Y243840D03*
G54D22*
X177800Y151120D03*
X177800Y245120D03*
X177800Y198120D03*
X671360Y243840D03*
X721360Y243840D03*
X771360Y243840D03*
G54D23*
X701040Y30480D03*
X726440Y30480D03*
X751840Y30480D03*
G54D24*
X299320Y35560D03*
X274320Y35560D03*
G54D25*
X299320Y106680D03*
X274320Y106680D03*
G54D26*
X414020Y127000D03*
X665480Y76200D03*

M02*
