M48
METRIC,TZ
VER,1
FMAT,2
DETECT,ON
ATC,ON
T1C4.0000
T2C1.3000
T3C1.2000
T4C0.6000
T5C0.9000
T6C1.1000
T7C1.8000
T8C1.5000
T9C0.8000
%
T1
X43180Y134620
X762000Y132080
T2
X35560Y203200
Y238760
Y30480
Y66040
X671360Y243840
X721360
X771360
T3
X828040Y106680
Y132080
Y157480
X701040Y30480
X726440
X751840
T4
X312420Y236220
X269240Y149860
T5
X624840Y22860
Y53340
X299320Y35560
X274320
X236680Y50800
X106680
X236680Y20320
X106680
X518160Y248920
X543560
Y172720
X568960Y248920
Y172720
X594360Y248920
Y172720
X518160
X652320Y187960
X782320
X779920Y81280
X629920
T6
X111760Y96520
X213360
X375920Y95720
Y45720
T7
X457200Y243840
Y67890
T8
X177800Y151120
Y245120
Y198120
T9
X299320Y106680
X274320
X414020Y127000
X665480Y76200
M30
