G04 Generated by Ultiboard 14.1 *
%FSLAX34Y34*%
%MOMM*%

%ADD10C,0.0001*%
%ADD11C,0.2540*%
%ADD12C,1.5000*%
%ADD13C,1.0000*%
%ADD14C,0.1270*%
%ADD15R,1.8051X1.8051*%
%ADD16C,0.9949*%
%ADD17C,2.8000*%
%ADD18C,2.1000*%
%ADD19R,2.1000X2.1000*%
%ADD20C,1.0000*%
%ADD21C,1.8000*%
%ADD22C,1.9000*%
%ADD23R,2.6000X2.6000*%
%ADD24R,9.4500X10.7500*%
%ADD25R,3.8000X1.0000*%
%ADD26C,3.0000*%
%ADD27C,2.2000*%
%ADD28R,3.6000X3.5000*%
%ADD29C,1.7000*%
%ADD30R,1.7000X1.7000*%
%ADD31C,1.4000*%
%ADD32R,1.4000X1.4000*%
%ADD33R,1.8000X1.8000*%
%ADD34C,1.2000*%


G04 ColorRGB 00FF00 for the following layer *
%LNCopper Top*%
%LPD*%
G54D10*
G36*
X323248Y226820D02*
X323248Y226820D01*
X357320Y226820D01*
X357320Y260685D01*
X394400Y260685D01*
X394400Y226820D01*
X432425Y226820D01*
X432425Y260685D01*
X435716Y260685D01*
G74*
D01*
G03X434885Y256840I8484J3845*
G01*
X434885Y256840D01*
X434885Y230840D01*
G75*
D01*
G03X440349Y222359I9315J0*
G01*
X440349Y222359D01*
X440349Y121933D01*
G75*
D01*
G03X445284Y110004I16851J-13*
G01*
X445284Y110004D01*
X465761Y89528D01*
G74*
D01*
G03X465452Y89648I8561J21638*
G01*
X465452Y89648D01*
X465452Y76142D01*
X478958Y76142D01*
G74*
D01*
G03X478838Y76451I21758J8252*
G01*
X478838Y76451D01*
X506102Y49186D01*
G74*
D01*
G03X506085Y48620I9298J566*
G01*
X506085Y48620D01*
X506085Y13620D01*
G75*
D01*
G03X507140Y9315I9315J0*
G01*
X507140Y9315D01*
X419226Y9315D01*
X425925Y16014D01*
G75*
D01*
G03X430871Y27940I-11905J11926*
G01*
X430871Y27940D01*
X430871Y127000D01*
G75*
D01*
G03X397169Y127000I-16851J0*
G01*
X397169Y127000D01*
X397169Y34920D01*
X395531Y33282D01*
G75*
D01*
G03X395735Y35220I-9111J1938*
G01*
X395735Y35220D01*
X395735Y56220D01*
G74*
D01*
G03X386420Y65535I9315J0*
G01*
X386420Y65535D01*
X379936Y65535D01*
X362291Y83180D01*
X362291Y92006D01*
X366005Y95720D01*
X362291Y99434D01*
X362291Y121920D01*
G74*
D01*
G03X357345Y133846I16851J0*
G01*
X357345Y133846D01*
X347206Y143985D01*
G74*
D01*
G03X345836Y145215I11926J11905*
G01*
X345836Y145215D01*
X357320Y145215D01*
X357320Y189740D01*
X319295Y189740D01*
X319295Y154530D01*
G75*
D01*
G03X321166Y148931I9315J0*
G01*
X321166Y148931D01*
X294000Y148931D01*
X282966Y159965D01*
X295360Y159965D01*
G74*
D01*
G03X304675Y169204I0J9315*
G01*
X304675Y169204D01*
X281436Y169204D01*
X281436Y161495D01*
X281156Y161776D01*
G74*
D01*
G03X271284Y166587I11916J11916*
G01*
X271284Y166587D01*
X271284Y169204D01*
X255639Y169204D01*
X255639Y174401D01*
X258179Y176941D01*
X276360Y176941D01*
G74*
D01*
G03X277193Y176965I0J14339*
G01*
X277193Y176965D01*
X295360Y176965D01*
G74*
D01*
G03X301591Y179356I0J9315*
G01*
X301591Y179356D01*
X304675Y179356D01*
G74*
D01*
G03X303992Y182780I9315J76*
G01*
G75*
D01*
G03X304675Y186280I-8632J3500*
G01*
X304675Y186280D01*
X304675Y196280D01*
G74*
D01*
G03X303992Y199780I9315J0*
G01*
G74*
D01*
G03X304675Y203204I8632J3500*
G01*
X304675Y203204D01*
X301591Y203204D01*
G74*
D01*
G03X295360Y205595I6231J6924*
G01*
X295360Y205595D01*
X277193Y205595D01*
G74*
D01*
G03X276360Y205619I833J14315*
G01*
X276360Y205619D01*
X252240Y205619D01*
G75*
D01*
G03X247304Y204743I0J-14339*
G01*
G74*
D01*
G03X242101Y201419I4936J13463*
G01*
X242101Y201419D01*
X231161Y190479D01*
G75*
D01*
G03X226961Y180322I10139J-10139*
G01*
X226961Y180322D01*
X226961Y127009D01*
G75*
D01*
G03X231161Y116861I14339J-9*
G01*
X231161Y116861D01*
X251481Y96541D01*
G74*
D01*
G03X261584Y92341I10139J10139*
G01*
G74*
D01*
G03X265677Y90511I5736J7339*
G01*
X265677Y90511D01*
X231142Y90511D01*
G75*
D01*
G03X195578Y90511I-17782J6009*
G01*
X195578Y90511D01*
X154300Y90511D01*
X136386Y108425D01*
G74*
D01*
G03X130561Y112228I11926J11905*
G01*
G75*
D01*
G03X124445Y113371I-6101J-15708*
G01*
X124445Y113371D01*
X120028Y113371D01*
G75*
D01*
G03X118244Y78905I-8268J-16851*
G01*
X118244Y78905D01*
X135404Y61744D01*
G74*
D01*
G03X146191Y56847I11916J11916*
G01*
G75*
D01*
G03X147320Y56809I1129J16813*
G01*
X147320Y56809D01*
X219426Y56809D01*
G75*
D01*
G03X226604Y35560I17254J-6009*
G01*
G75*
D01*
G03X222096Y9315I10076J-15240*
G01*
X222096Y9315D01*
X124776Y9315D01*
G75*
D01*
G03X124995Y11320I-9096J2005*
G01*
X124995Y11320D01*
X124995Y29320D01*
G74*
D01*
G03X122596Y35560I9315J0*
G01*
G75*
D01*
G03X124995Y41800I-6916J6240*
G01*
X124995Y41800D01*
X124995Y59800D01*
G74*
D01*
G03X115680Y69115I9315J0*
G01*
X115680Y69115D01*
X97680Y69115D01*
G75*
D01*
G03X88365Y59800I0J-9315*
G01*
X88365Y59800D01*
X88365Y41800D01*
G75*
D01*
G03X90764Y35560I9315J0*
G01*
G74*
D01*
G03X88365Y29320I6916J6240*
G01*
X88365Y29320D01*
X88365Y11320D01*
G75*
D01*
G03X88584Y9315I9315J0*
G01*
X88584Y9315D01*
X52169Y9315D01*
G75*
D01*
G03X58899Y21455I-7584J12140*
G01*
X58899Y21455D01*
X58899Y39505D01*
G74*
D01*
G03X53238Y50908I14314J0*
G01*
G75*
D01*
G03X17882Y50908I-17678J15132*
G01*
G74*
D01*
G03X12221Y39505I8653J11403*
G01*
X12221Y39505D01*
X12221Y21455D01*
G75*
D01*
G03X12958Y16922I14314J0*
G01*
G74*
D01*
G02X9303Y27580I15097J11133*
G01*
G75*
D01*
G03X9315Y28055I-9303J475*
G01*
X9315Y28055D01*
X9315Y241945D01*
G74*
D01*
G03X9303Y242420I9315J0*
G01*
G74*
D01*
G02X27580Y260697I18752J475*
G01*
G74*
D01*
G03X27776Y260689I475J9303*
G01*
G75*
D01*
G03X17882Y223628I7784J-21929*
G01*
G74*
D01*
G03X12221Y212225I8653J11403*
G01*
X12221Y212225D01*
X12221Y211476D01*
X27284Y211476D01*
X27284Y217011D01*
G75*
D01*
G03X43836Y217011I8276J21749*
G01*
X43836Y217011D01*
X43836Y211476D01*
X58899Y211476D01*
X58899Y212225D01*
G74*
D01*
G03X53238Y223628I14314J0*
G01*
G75*
D01*
G03X43356Y260685I-17678J15132*
G01*
X43356Y260685D01*
X159179Y260685D01*
G75*
D01*
G03X171735Y221620I18621J-15565*
G01*
G75*
D01*
G03X171735Y174620I6065J-23500*
G01*
G75*
D01*
G03X183865Y174620I6065J-23500*
G01*
G75*
D01*
G03X183865Y221620I-6065J23500*
G01*
G74*
D01*
G03X195266Y228269I6065J23500*
G01*
X195266Y228269D01*
X248045Y228269D01*
X248045Y220280D01*
G75*
D01*
G03X248728Y216780I9315J0*
G01*
G74*
D01*
G03X248045Y213356I8632J3500*
G01*
X248045Y213356D01*
X251129Y213356D01*
G75*
D01*
G03X257360Y210965I6231J6924*
G01*
X257360Y210965D01*
X275527Y210965D01*
G75*
D01*
G03X276360Y210941I833J14315*
G01*
X276360Y210941D01*
X301480Y210941D01*
G74*
D01*
G03X311629Y215151I0J14339*
G01*
X311629Y215151D01*
X322559Y226081D01*
G74*
D01*
G03X323248Y226820I10139J10139*
G01*
D02*
G37*
%LPC*%
G36*
X465452Y46132D02*
G74*
D01*
G03X478958Y59638I8252J21758*
G01*
X478958Y59638D01*
X465452Y59638D01*
X465452Y46132D01*
D02*
G37*
G36*
X13910Y134620D02*
G75*
D01*
G03X13910Y134620I29270J0*
G01*
D02*
G37*
G36*
X26535Y179861D02*
X26535Y179861D01*
X27284Y179861D01*
X27284Y194924D01*
X12221Y194924D01*
X12221Y194175D01*
G75*
D01*
G03X26535Y179861I14314J0*
G01*
D02*
G37*
G36*
X44585Y179861D02*
G75*
D01*
G03X58899Y194175I0J14314*
G01*
X58899Y194175D01*
X58899Y194924D01*
X43836Y194924D01*
X43836Y179861D01*
X44585Y179861D01*
D02*
G37*
G36*
X29060Y203200D02*
G75*
D01*
G03X29060Y203200I6500J0*
G01*
D02*
G37*
G36*
X384034Y77692D02*
X384034Y77692D01*
X375920Y85805D01*
X367806Y77692D01*
G75*
D01*
G03X384034Y77692I8114J18028*
G01*
D02*
G37*
G36*
X370420Y95720D02*
G75*
D01*
G03X370420Y95720I5500J0*
G01*
D02*
G37*
G36*
X393948Y103834D02*
X393948Y103834D01*
X385835Y95720D01*
X393948Y87606D01*
G75*
D01*
G03X393948Y103834I-18028J8114*
G01*
D02*
G37*
G36*
X423110Y145215D02*
G75*
D01*
G03X432425Y154530I0J9315*
G01*
X432425Y154530D01*
X432425Y189740D01*
X394400Y189740D01*
X394400Y145215D01*
X423110Y145215D01*
D02*
G37*
G36*
X448200Y67890D02*
G75*
D01*
G03X448200Y67890I9000J0*
G01*
D02*
G37*
G36*
X435442Y76142D02*
X435442Y76142D01*
X448948Y76142D01*
X448948Y89648D01*
G74*
D01*
G03X435442Y76142I8252J21758*
G01*
D02*
G37*
G36*
X448948Y46132D02*
X448948Y46132D01*
X448948Y59638D01*
X435442Y59638D01*
G74*
D01*
G03X448948Y46132I21758J8252*
G01*
D02*
G37*
G36*
X367806Y113748D02*
X367806Y113748D01*
X375920Y105635D01*
X384034Y113748D01*
G75*
D01*
G03X367806Y113748I-8114J-18028*
G01*
D02*
G37*
%LPD*%
G36*
X581660Y235786D02*
G75*
D01*
G02X556260Y235786I-12700J13134*
G01*
G75*
D01*
G02X530860Y235786I-12700J13134*
G01*
G75*
D01*
G02X509639Y232759I-12700J13134*
G01*
X509639Y232759D01*
X509639Y191035D01*
X527160Y191035D01*
G74*
D01*
G02X529221Y190804I0J9315*
G01*
X529221Y190804D01*
X529221Y198109D01*
G75*
D01*
G02X533421Y208259I14339J11*
G01*
X533421Y208259D01*
X551201Y226039D01*
G75*
D01*
G02X561345Y230239I10139J-10139*
G01*
X561345Y230239D01*
X651259Y230239D01*
G74*
D01*
G02X648667Y235234I20101J13601*
G01*
X648667Y235234D01*
X662754Y235234D01*
X662754Y230239D01*
X665480Y230239D01*
G74*
D01*
G02X675629Y226029I0J14339*
G01*
X675629Y226029D01*
X679966Y221692D01*
X679966Y235234D01*
X694053Y235234D01*
G74*
D01*
G02X680359Y221300I22693J8606*
G01*
X680359Y221300D01*
X708629Y193029D01*
G74*
D01*
G02X712839Y182880I10129J10149*
G01*
X712839Y182880D01*
X712839Y145639D01*
X733640Y124839D01*
G75*
D01*
G02X791263Y131421I28360J7241*
G01*
G74*
D01*
G02X793264Y133836I13917J9501*
G01*
X793264Y133836D01*
X803424Y143996D01*
G74*
D01*
G02X808225Y147355I11916J11916*
G01*
X808225Y147355D01*
X808225Y167980D01*
G75*
D01*
G02X817540Y177295I9315J0*
G01*
X817540Y177295D01*
X838540Y177295D01*
G74*
D01*
G02X847855Y167980I0J9315*
G01*
X847855Y167980D01*
X847855Y146980D01*
G75*
D01*
G02X845683Y141001I-9315J0*
G01*
G75*
D01*
G02X843191Y119380I-17643J-8921*
G01*
G75*
D01*
G02X822031Y87845I-15151J-12700*
G01*
X822031Y87845D01*
X822031Y73660D01*
G75*
D01*
G02X817085Y61734I-16851J0*
G01*
X817085Y61734D01*
X801686Y46335D01*
G74*
D01*
G02X791175Y41448I11926J11905*
G01*
G75*
D01*
G02X789754Y41389I-1415J16792*
G01*
X789754Y41389D01*
X768924Y41389D01*
G75*
D01*
G02X739140Y14682I-17084J-10909*
G01*
G75*
D01*
G02X713740Y14682I-12700J15798*
G01*
G75*
D01*
G02X683956Y41389I-12700J15798*
G01*
X683956Y41389D01*
X683440Y41389D01*
G75*
D01*
G02X679021Y41978I0J16851*
G01*
G74*
D01*
G02X671525Y46324I4419J16262*
G01*
X671525Y46324D01*
X653564Y64284D01*
G75*
D01*
G02X677396Y88116I11916J11916*
G01*
X677396Y88116D01*
X690420Y75091D01*
X742831Y75091D01*
X710685Y107236D01*
X710685Y107236D01*
X688361Y129561D01*
G75*
D01*
G02X684161Y139711I10139J10139*
G01*
X684161Y139711D01*
X684161Y176941D01*
X670380Y190721D01*
G75*
D01*
G02X640121Y201561I-18060J-2761*
G01*
X640121Y201561D01*
X567279Y201561D01*
X557899Y192181D01*
X557899Y187261D01*
G75*
D01*
G02X581660Y185854I11061J-14541*
G01*
G74*
D01*
G02X587881Y189803I12700J13134*
G01*
X587881Y189803D01*
X587881Y179199D01*
X586043Y179199D01*
G75*
D01*
G02X586043Y166241I-17083J-6479*
G01*
X586043Y166241D01*
X587881Y166241D01*
X587881Y155637D01*
G74*
D01*
G02X581660Y159586I6479J17083*
G01*
G75*
D01*
G02X556260Y159586I-12700J13134*
G01*
G75*
D01*
G02X533853Y157242I-12700J13134*
G01*
G74*
D01*
G02X527160Y154405I6693J6478*
G01*
X527160Y154405D01*
X509639Y154405D01*
X509639Y153259D01*
X524964Y137935D01*
X551400Y137935D01*
G74*
D01*
G02X560715Y128620I0J9315*
G01*
X560715Y128620D01*
X560715Y93620D01*
G75*
D01*
G02X551400Y84305I-9315J0*
G01*
X551400Y84305D01*
X518646Y84305D01*
X545016Y57935D01*
X551400Y57935D01*
G74*
D01*
G02X560715Y48620I0J9315*
G01*
X560715Y48620D01*
X560715Y13620D01*
G74*
D01*
G02X559660Y9315I9315J0*
G01*
X559660Y9315D01*
X612579Y9315D01*
G75*
D01*
G02X614764Y38100I12261J13545*
G01*
G74*
D01*
G02X607757Y46861I10076J15240*
G01*
X607757Y46861D01*
X618361Y46861D01*
X618361Y39943D01*
G75*
D01*
G02X631319Y39943I6479J-17083*
G01*
X631319Y39943D01*
X631319Y46861D01*
X641923Y46861D01*
G74*
D01*
G02X634916Y38100I17083J6479*
G01*
G75*
D01*
G02X637101Y9315I-10076J-15240*
G01*
X637101Y9315D01*
X831945Y9315D01*
G74*
D01*
G02X832420Y9303I0J9315*
G01*
G74*
D01*
G03X850697Y27580I475J18752*
G01*
G75*
D01*
G02X850685Y28055I9303J475*
G01*
X850685Y28055D01*
X850685Y241945D01*
G74*
D01*
G02X850697Y242420I9315J0*
G01*
G74*
D01*
G03X832420Y260697I18752J475*
G01*
G74*
D01*
G02X831945Y260685I475J9303*
G01*
X831945Y260685D01*
X788832Y260685D01*
G75*
D01*
G02X753888Y260685I-17472J-16845*
G01*
X753888Y260685D01*
X738832Y260685D01*
G75*
D01*
G02X703888Y260685I-17472J-16845*
G01*
X703888Y260685D01*
X688832Y260685D01*
G74*
D01*
G02X694053Y252446I17472J16845*
G01*
X694053Y252446D01*
X679966Y252446D01*
X679966Y260685D01*
X662754Y260685D01*
X662754Y252446D01*
X648667Y252446D01*
G74*
D01*
G02X653888Y260685I22693J8606*
G01*
X653888Y260685D01*
X608338Y260685D01*
G75*
D01*
G02X581660Y235786I-13978J-11765*
G01*
D02*
G37*
%LPC*%
G36*
X664860Y243840D02*
G75*
D01*
G02X664860Y243840I6500J0*
G01*
D02*
G37*
G36*
X800635Y178960D02*
G75*
D01*
G02X791320Y169645I-9315J0*
G01*
X791320Y169645D01*
X773320Y169645D01*
G75*
D01*
G02X764005Y178960I0J9315*
G01*
X764005Y178960D01*
X764005Y196960D01*
G75*
D01*
G02X773320Y206275I9315J0*
G01*
X773320Y206275D01*
X791320Y206275D01*
G74*
D01*
G02X800635Y196960I0J9315*
G01*
X800635Y196960D01*
X800635Y178960D01*
D02*
G37*
G36*
X600839Y189803D02*
G74*
D01*
G02X611443Y179199I6479J17083*
G01*
X611443Y179199D01*
X600839Y179199D01*
X600839Y189803D01*
D02*
G37*
G36*
X589860Y172720D02*
G75*
D01*
G02X589860Y172720I4500J0*
G01*
D02*
G37*
G36*
X611443Y166241D02*
G74*
D01*
G02X600839Y155637I17083J6479*
G01*
X600839Y155637D01*
X600839Y166241D01*
X611443Y166241D01*
D02*
G37*
G36*
X639049Y99594D02*
X639049Y99594D01*
X629920Y90465D01*
X620791Y99594D01*
G75*
D01*
G02X620920Y99595I129J-9314*
G01*
X620920Y99595D01*
X638920Y99595D01*
G74*
D01*
G02X639049Y99594I0J9315*
G01*
D02*
G37*
G36*
X641923Y59819D02*
X641923Y59819D01*
X631319Y59819D01*
X631319Y62965D01*
X620920Y62965D01*
G75*
D01*
G02X620791Y62966I0J9315*
G01*
X620791Y62966D01*
X629920Y72095D01*
X631771Y70244D01*
G74*
D01*
G02X641923Y59819I6931J16904*
G01*
D02*
G37*
G36*
X625420Y81280D02*
G75*
D01*
G02X625420Y81280I4500J0*
G01*
D02*
G37*
G36*
X648234Y72151D02*
X648234Y72151D01*
X639105Y81280D01*
X648234Y90409D01*
G74*
D01*
G02X648235Y90280I9314J129*
G01*
X648235Y90280D01*
X648235Y72280D01*
G75*
D01*
G02X648234Y72151I-9315J0*
G01*
D02*
G37*
G36*
X611606Y72151D02*
G75*
D01*
G02X611605Y72280I9314J129*
G01*
X611605Y72280D01*
X611605Y90280D01*
G74*
D01*
G02X611606Y90409I9315J0*
G01*
X611606Y90409D01*
X620735Y81280D01*
X611606Y72151D01*
D02*
G37*
G36*
X620340Y53340D02*
G75*
D01*
G02X620340Y53340I4500J0*
G01*
D02*
G37*
G36*
X607757Y59819D02*
G74*
D01*
G02X618361Y70423I17083J6479*
G01*
X618361Y70423D01*
X618361Y59819D01*
X607757Y59819D01*
D02*
G37*
%LPD*%
G36*
X316171Y56280D02*
G74*
D01*
G03X311225Y68206I16851J0*
G01*
X311225Y68206D01*
X293866Y85565D01*
G74*
D01*
G03X285664Y90095I11926J11905*
G01*
G74*
D01*
G03X282827Y90488I3724J16435*
G01*
G75*
D01*
G03X290635Y99680I-1507J9192*
G01*
X290635Y99680D01*
X290635Y106154D01*
X291161Y106680D01*
X290635Y107206D01*
X290635Y113680D01*
G74*
D01*
G03X290505Y115229I9315J0*
G01*
X290505Y115229D01*
X298930Y115229D01*
X299320Y114839D01*
X299710Y115229D01*
X328300Y115229D01*
X328589Y114940D01*
X328589Y76222D01*
G75*
D01*
G03X333524Y64284I16851J-22*
G01*
X333524Y64284D01*
X356105Y41704D01*
X356105Y35220D01*
G75*
D01*
G03X356646Y32091I9315J0*
G01*
X356646Y32091D01*
X326620Y32091D01*
X316171Y42540D01*
X316171Y56280D01*
D02*
G37*
%LPC*%
G36*
X305997Y91843D02*
X305997Y91843D01*
X299320Y98521D01*
X292643Y91843D01*
G75*
D01*
G03X305997Y91843I6677J14837*
G01*
D02*
G37*
G36*
X314157Y113357D02*
X314157Y113357D01*
X307479Y106680D01*
X314157Y100003D01*
G75*
D01*
G03X314157Y113357I-14837J6677*
G01*
D02*
G37*
G36*
X295320Y106680D02*
G75*
D01*
G03X295320Y106680I4000J0*
G01*
D02*
G37*
%LPD*%
G36*
X479515Y230840D02*
G75*
D01*
G02X474051Y222359I-9315J0*
G01*
X474051Y222359D01*
X474051Y128900D01*
X506085Y96866D01*
X506085Y116256D01*
X485161Y137181D01*
G75*
D01*
G02X480961Y147339I10139J10139*
G01*
X480961Y147339D01*
X480961Y238746D01*
G75*
D01*
G02X485161Y248899I14339J14*
G01*
X485161Y248899D01*
X495321Y259059D01*
G74*
D01*
G02X497263Y260685I10139J10139*
G01*
X497263Y260685D01*
X478684Y260685D01*
G74*
D01*
G02X479515Y256840I8484J3845*
G01*
X479515Y256840D01*
X479515Y230840D01*
D02*
G37*
G36*
X251264Y9315D02*
G75*
D01*
G03X246756Y35560I-14584J11005*
G01*
G75*
D01*
G03X253934Y56809I-10076J15240*
G01*
X253934Y56809D01*
X274960Y56809D01*
X278394Y53375D01*
X265820Y53375D01*
G75*
D01*
G03X256505Y44060I0J-9315*
G01*
X256505Y44060D01*
X256505Y27060D01*
G75*
D01*
G03X265820Y17745I9315J0*
G01*
X265820Y17745D01*
X282820Y17745D01*
G74*
D01*
G03X289607Y20680I0J9315*
G01*
G74*
D01*
G03X291393Y19656I9713J14880*
G01*
X291393Y19656D01*
X301734Y9315D01*
X251264Y9315D01*
D02*
G37*
G36*
X754759Y103720D02*
G75*
D01*
G03X788329Y119292I7241J28360*
G01*
X788329Y119292D01*
X788329Y97500D01*
G75*
D01*
G03X768598Y95619I-8409J-16220*
G01*
X768598Y95619D01*
X762859Y95619D01*
X754759Y103720D01*
D02*
G37*
G36*
X265722Y122857D02*
X265722Y122857D01*
X255639Y132939D01*
X255639Y139911D01*
G74*
D01*
G03X257324Y137944I13601J9949*
G01*
X257324Y137944D01*
X272274Y122995D01*
X267320Y122995D01*
G75*
D01*
G03X265722Y122857I0J-9315*
G01*
D02*
G37*
G36*
X255639Y159809D02*
X255639Y159809D01*
X255639Y160126D01*
G74*
D01*
G03X255848Y160089I1721J9154*
G01*
G74*
D01*
G03X255639Y159809I13392J10229*
G01*
D02*
G37*
G54D11*
X664860Y243840D02*
G75*
D01*
G02X664860Y243840I6500J0*
G01*
X800635Y178960D02*
G75*
D01*
G02X791320Y169645I-9315J0*
G01*
X773320Y169645D01*
G75*
D01*
G02X764005Y178960I0J9315*
G01*
X764005Y196960D01*
G75*
D01*
G02X773320Y206275I9315J0*
G01*
X791320Y206275D01*
G74*
D01*
G02X800635Y196960I0J9315*
G01*
X800635Y178960D01*
X600839Y189803D02*
G74*
D01*
G02X611443Y179199I6479J17083*
G01*
X600839Y179199D01*
X600839Y189803D01*
X589860Y172720D02*
G75*
D01*
G02X589860Y172720I4500J0*
G01*
X611443Y166241D02*
G74*
D01*
G02X600839Y155637I17083J6479*
G01*
X600839Y166241D01*
X611443Y166241D01*
X639049Y99594D02*
X629920Y90465D01*
X620791Y99594D01*
G75*
D01*
G02X620920Y99595I129J-9314*
G01*
X638920Y99595D01*
G74*
D01*
G02X639049Y99594I0J9315*
G01*
X641923Y59819D02*
X631319Y59819D01*
X631319Y62965D01*
X620920Y62965D01*
G75*
D01*
G02X620791Y62966I0J9315*
G01*
X629920Y72095D01*
X631771Y70244D01*
G74*
D01*
G02X641923Y59819I6931J16904*
G01*
X625420Y81280D02*
G75*
D01*
G02X625420Y81280I4500J0*
G01*
X648234Y72151D02*
X639105Y81280D01*
X648234Y90409D01*
G74*
D01*
G02X648235Y90280I9314J129*
G01*
X648235Y72280D01*
G75*
D01*
G02X648234Y72151I-9315J0*
G01*
X611606Y72151D02*
G75*
D01*
G02X611605Y72280I9314J129*
G01*
X611605Y90280D01*
G74*
D01*
G02X611606Y90409I9315J0*
G01*
X620735Y81280D01*
X611606Y72151D01*
X620340Y53340D02*
G75*
D01*
G02X620340Y53340I4500J0*
G01*
X607757Y59819D02*
G74*
D01*
G02X618361Y70423I17083J6479*
G01*
X618361Y59819D01*
X607757Y59819D01*
X581660Y235786D02*
G75*
D01*
G02X556260Y235786I-12700J13134*
G01*
G75*
D01*
G02X530860Y235786I-12700J13134*
G01*
G75*
D01*
G02X509639Y232759I-12700J13134*
G01*
X509639Y191035D01*
X527160Y191035D01*
G74*
D01*
G02X529221Y190804I0J9315*
G01*
X529221Y198109D01*
G75*
D01*
G02X533421Y208259I14339J11*
G01*
X551201Y226039D01*
G75*
D01*
G02X561345Y230239I10139J-10139*
G01*
X651259Y230239D01*
G74*
D01*
G02X648667Y235234I20101J13601*
G01*
X662754Y235234D01*
X662754Y230239D01*
X665480Y230239D01*
G74*
D01*
G02X675629Y226029I0J14339*
G01*
X679966Y221692D01*
X679966Y235234D01*
X694053Y235234D01*
G74*
D01*
G02X680359Y221300I22693J8606*
G01*
X708629Y193029D01*
G74*
D01*
G02X712839Y182880I10129J10149*
G01*
X712839Y145639D01*
X733640Y124839D01*
G75*
D01*
G02X791263Y131421I28360J7241*
G01*
G74*
D01*
G02X793264Y133836I13917J9501*
G01*
X803424Y143996D01*
G74*
D01*
G02X808225Y147355I11916J11916*
G01*
X808225Y167980D01*
G75*
D01*
G02X817540Y177295I9315J0*
G01*
X838540Y177295D01*
G74*
D01*
G02X847855Y167980I0J9315*
G01*
X847855Y146980D01*
G75*
D01*
G02X845683Y141001I-9315J0*
G01*
G75*
D01*
G02X843191Y119380I-17643J-8921*
G01*
G75*
D01*
G02X822031Y87845I-15151J-12700*
G01*
X822031Y73660D01*
G75*
D01*
G02X817085Y61734I-16851J0*
G01*
X801686Y46335D01*
G74*
D01*
G02X791175Y41448I11926J11905*
G01*
G75*
D01*
G02X789754Y41389I-1415J16792*
G01*
X768924Y41389D01*
G75*
D01*
G02X739140Y14682I-17084J-10909*
G01*
G75*
D01*
G02X713740Y14682I-12700J15798*
G01*
G75*
D01*
G02X683956Y41389I-12700J15798*
G01*
X683440Y41389D01*
G75*
D01*
G02X679021Y41978I0J16851*
G01*
G74*
D01*
G02X671525Y46324I4419J16262*
G01*
X653564Y64284D01*
G75*
D01*
G02X677396Y88116I11916J11916*
G01*
X690420Y75091D01*
X742831Y75091D01*
X710685Y107236D01*
X710685Y107236D01*
X688361Y129561D01*
G75*
D01*
G02X684161Y139711I10139J10139*
G01*
X684161Y176941D01*
X670380Y190721D01*
G75*
D01*
G02X640121Y201561I-18060J-2761*
G01*
X567279Y201561D01*
X557899Y192181D01*
X557899Y187261D01*
G75*
D01*
G02X581660Y185854I11061J-14541*
G01*
G74*
D01*
G02X587881Y189803I12700J13134*
G01*
X587881Y179199D01*
X586043Y179199D01*
G75*
D01*
G02X586043Y166241I-17083J-6479*
G01*
X587881Y166241D01*
X587881Y155637D01*
G74*
D01*
G02X581660Y159586I6479J17083*
G01*
G75*
D01*
G02X556260Y159586I-12700J13134*
G01*
G75*
D01*
G02X533853Y157242I-12700J13134*
G01*
G74*
D01*
G02X527160Y154405I6693J6478*
G01*
X509639Y154405D01*
X509639Y153259D01*
X524964Y137935D01*
X551400Y137935D01*
G74*
D01*
G02X560715Y128620I0J9315*
G01*
X560715Y93620D01*
G75*
D01*
G02X551400Y84305I-9315J0*
G01*
X518646Y84305D01*
X545016Y57935D01*
X551400Y57935D01*
G74*
D01*
G02X560715Y48620I0J9315*
G01*
X560715Y13620D01*
G74*
D01*
G02X559660Y9315I9315J0*
G01*
X612579Y9315D01*
G75*
D01*
G02X614764Y38100I12261J13545*
G01*
G74*
D01*
G02X607757Y46861I10076J15240*
G01*
X618361Y46861D01*
X618361Y39943D01*
G75*
D01*
G02X631319Y39943I6479J-17083*
G01*
X631319Y46861D01*
X641923Y46861D01*
G74*
D01*
G02X634916Y38100I17083J6479*
G01*
G75*
D01*
G02X637101Y9315I-10076J-15240*
G01*
X831945Y9315D01*
G74*
D01*
G02X832420Y9303I0J9315*
G01*
G74*
D01*
G03X850697Y27580I475J18752*
G01*
G75*
D01*
G02X850685Y28055I9303J475*
G01*
X850685Y241945D01*
G74*
D01*
G02X850697Y242420I9315J0*
G01*
G74*
D01*
G03X832420Y260697I18752J475*
G01*
G74*
D01*
G02X831945Y260685I475J9303*
G01*
X788832Y260685D01*
G75*
D01*
G02X753888Y260685I-17472J-16845*
G01*
X738832Y260685D01*
G75*
D01*
G02X703888Y260685I-17472J-16845*
G01*
X688832Y260685D01*
G74*
D01*
G02X694053Y252446I17472J16845*
G01*
X679966Y252446D01*
X679966Y260685D01*
X662754Y260685D01*
X662754Y252446D01*
X648667Y252446D01*
G74*
D01*
G02X653888Y260685I22693J8606*
G01*
X608338Y260685D01*
G75*
D01*
G02X581660Y235786I-13978J-11765*
G01*
X465452Y46132D02*
G74*
D01*
G03X478958Y59638I8252J21758*
G01*
X465452Y59638D01*
X465452Y46132D01*
X13910Y134620D02*
G75*
D01*
G03X13910Y134620I29270J0*
G01*
X26535Y179861D02*
X27284Y179861D01*
X27284Y194924D01*
X12221Y194924D01*
X12221Y194175D01*
G75*
D01*
G03X26535Y179861I14314J0*
G01*
X44585Y179861D02*
G75*
D01*
G03X58899Y194175I0J14314*
G01*
X58899Y194924D01*
X43836Y194924D01*
X43836Y179861D01*
X44585Y179861D01*
X29060Y203200D02*
G75*
D01*
G03X29060Y203200I6500J0*
G01*
X384034Y77692D02*
X375920Y85805D01*
X367806Y77692D01*
G75*
D01*
G03X384034Y77692I8114J18028*
G01*
X370420Y95720D02*
G75*
D01*
G03X370420Y95720I5500J0*
G01*
X393948Y103834D02*
X385835Y95720D01*
X393948Y87606D01*
G75*
D01*
G03X393948Y103834I-18028J8114*
G01*
X423110Y145215D02*
G75*
D01*
G03X432425Y154530I0J9315*
G01*
X432425Y189740D01*
X394400Y189740D01*
X394400Y145215D01*
X423110Y145215D01*
X448200Y67890D02*
G75*
D01*
G03X448200Y67890I9000J0*
G01*
X435442Y76142D02*
X448948Y76142D01*
X448948Y89648D01*
G74*
D01*
G03X435442Y76142I8252J21758*
G01*
X448948Y46132D02*
X448948Y59638D01*
X435442Y59638D01*
G74*
D01*
G03X448948Y46132I21758J8252*
G01*
X367806Y113748D02*
X375920Y105635D01*
X384034Y113748D01*
G75*
D01*
G03X367806Y113748I-8114J-18028*
G01*
X323248Y226820D02*
X357320Y226820D01*
X357320Y260685D01*
X394400Y260685D01*
X394400Y226820D01*
X432425Y226820D01*
X432425Y260685D01*
X435716Y260685D01*
G74*
D01*
G03X434885Y256840I8484J3845*
G01*
X434885Y230840D01*
G75*
D01*
G03X440349Y222359I9315J0*
G01*
X440349Y121933D01*
G75*
D01*
G03X445284Y110004I16851J-13*
G01*
X465761Y89528D01*
G74*
D01*
G03X465452Y89648I8561J21638*
G01*
X465452Y76142D01*
X478958Y76142D01*
G74*
D01*
G03X478838Y76451I21758J8252*
G01*
X506102Y49186D01*
G74*
D01*
G03X506085Y48620I9298J566*
G01*
X506085Y13620D01*
G75*
D01*
G03X507140Y9315I9315J0*
G01*
X419226Y9315D01*
X425925Y16014D01*
G75*
D01*
G03X430871Y27940I-11905J11926*
G01*
X430871Y127000D01*
G75*
D01*
G03X397169Y127000I-16851J0*
G01*
X397169Y34920D01*
X395531Y33282D01*
G75*
D01*
G03X395735Y35220I-9111J1938*
G01*
X395735Y56220D01*
G74*
D01*
G03X386420Y65535I9315J0*
G01*
X379936Y65535D01*
X362291Y83180D01*
X362291Y92006D01*
X366005Y95720D01*
X362291Y99434D01*
X362291Y121920D01*
G74*
D01*
G03X357345Y133846I16851J0*
G01*
X347206Y143985D01*
G74*
D01*
G03X345836Y145215I11926J11905*
G01*
X357320Y145215D01*
X357320Y189740D01*
X319295Y189740D01*
X319295Y154530D01*
G75*
D01*
G03X321166Y148931I9315J0*
G01*
X294000Y148931D01*
X282966Y159965D01*
X295360Y159965D01*
G74*
D01*
G03X304675Y169204I0J9315*
G01*
X281436Y169204D01*
X281436Y161495D01*
X281156Y161776D01*
G74*
D01*
G03X271284Y166587I11916J11916*
G01*
X271284Y169204D01*
X255639Y169204D01*
X255639Y174401D01*
X258179Y176941D01*
X276360Y176941D01*
G74*
D01*
G03X277193Y176965I0J14339*
G01*
X295360Y176965D01*
G74*
D01*
G03X301591Y179356I0J9315*
G01*
X304675Y179356D01*
G74*
D01*
G03X303992Y182780I9315J76*
G01*
G75*
D01*
G03X304675Y186280I-8632J3500*
G01*
X304675Y196280D01*
G74*
D01*
G03X303992Y199780I9315J0*
G01*
G74*
D01*
G03X304675Y203204I8632J3500*
G01*
X301591Y203204D01*
G74*
D01*
G03X295360Y205595I6231J6924*
G01*
X277193Y205595D01*
G74*
D01*
G03X276360Y205619I833J14315*
G01*
X252240Y205619D01*
G75*
D01*
G03X247304Y204743I0J-14339*
G01*
G74*
D01*
G03X242101Y201419I4936J13463*
G01*
X231161Y190479D01*
G75*
D01*
G03X226961Y180322I10139J-10139*
G01*
X226961Y127009D01*
G75*
D01*
G03X231161Y116861I14339J-9*
G01*
X251481Y96541D01*
G74*
D01*
G03X261584Y92341I10139J10139*
G01*
G74*
D01*
G03X265677Y90511I5736J7339*
G01*
X231142Y90511D01*
G75*
D01*
G03X195578Y90511I-17782J6009*
G01*
X154300Y90511D01*
X136386Y108425D01*
G74*
D01*
G03X130561Y112228I11926J11905*
G01*
G75*
D01*
G03X124445Y113371I-6101J-15708*
G01*
X120028Y113371D01*
G75*
D01*
G03X118244Y78905I-8268J-16851*
G01*
X135404Y61744D01*
G74*
D01*
G03X146191Y56847I11916J11916*
G01*
G75*
D01*
G03X147320Y56809I1129J16813*
G01*
X219426Y56809D01*
G75*
D01*
G03X226604Y35560I17254J-6009*
G01*
G75*
D01*
G03X222096Y9315I10076J-15240*
G01*
X124776Y9315D01*
G75*
D01*
G03X124995Y11320I-9096J2005*
G01*
X124995Y29320D01*
G74*
D01*
G03X122596Y35560I9315J0*
G01*
G75*
D01*
G03X124995Y41800I-6916J6240*
G01*
X124995Y59800D01*
G74*
D01*
G03X115680Y69115I9315J0*
G01*
X97680Y69115D01*
G75*
D01*
G03X88365Y59800I0J-9315*
G01*
X88365Y41800D01*
G75*
D01*
G03X90764Y35560I9315J0*
G01*
G74*
D01*
G03X88365Y29320I6916J6240*
G01*
X88365Y11320D01*
G75*
D01*
G03X88584Y9315I9315J0*
G01*
X52169Y9315D01*
G75*
D01*
G03X58899Y21455I-7584J12140*
G01*
X58899Y39505D01*
G74*
D01*
G03X53238Y50908I14314J0*
G01*
G75*
D01*
G03X17882Y50908I-17678J15132*
G01*
G74*
D01*
G03X12221Y39505I8653J11403*
G01*
X12221Y21455D01*
G75*
D01*
G03X12958Y16922I14314J0*
G01*
G74*
D01*
G02X9303Y27580I15097J11133*
G01*
G75*
D01*
G03X9315Y28055I-9303J475*
G01*
X9315Y241945D01*
G74*
D01*
G03X9303Y242420I9315J0*
G01*
G74*
D01*
G02X27580Y260697I18752J475*
G01*
G74*
D01*
G03X27776Y260689I475J9303*
G01*
G75*
D01*
G03X17882Y223628I7784J-21929*
G01*
G74*
D01*
G03X12221Y212225I8653J11403*
G01*
X12221Y211476D01*
X27284Y211476D01*
X27284Y217011D01*
G75*
D01*
G03X43836Y217011I8276J21749*
G01*
X43836Y211476D01*
X58899Y211476D01*
X58899Y212225D01*
G74*
D01*
G03X53238Y223628I14314J0*
G01*
G75*
D01*
G03X43356Y260685I-17678J15132*
G01*
X159179Y260685D01*
G75*
D01*
G03X171735Y221620I18621J-15565*
G01*
G75*
D01*
G03X171735Y174620I6065J-23500*
G01*
G75*
D01*
G03X183865Y174620I6065J-23500*
G01*
G75*
D01*
G03X183865Y221620I-6065J23500*
G01*
G74*
D01*
G03X195266Y228269I6065J23500*
G01*
X248045Y228269D01*
X248045Y220280D01*
G75*
D01*
G03X248728Y216780I9315J0*
G01*
G74*
D01*
G03X248045Y213356I8632J3500*
G01*
X251129Y213356D01*
G75*
D01*
G03X257360Y210965I6231J6924*
G01*
X275527Y210965D01*
G75*
D01*
G03X276360Y210941I833J14315*
G01*
X301480Y210941D01*
G74*
D01*
G03X311629Y215151I0J14339*
G01*
X322559Y226081D01*
G74*
D01*
G03X323248Y226820I10139J10139*
G01*
X255639Y159809D02*
X255639Y160126D01*
G74*
D01*
G03X255848Y160089I1721J9154*
G01*
G74*
D01*
G03X255639Y159809I13392J10229*
G01*
X479515Y230840D02*
G75*
D01*
G02X474051Y222359I-9315J0*
G01*
X474051Y128900D01*
X506085Y96866D01*
X506085Y116256D01*
X485161Y137181D01*
G75*
D01*
G02X480961Y147339I10139J10139*
G01*
X480961Y238746D01*
G75*
D01*
G02X485161Y248899I14339J14*
G01*
X495321Y259059D01*
G74*
D01*
G02X497263Y260685I10139J10139*
G01*
X478684Y260685D01*
G74*
D01*
G02X479515Y256840I8484J3845*
G01*
X479515Y230840D01*
X251264Y9315D02*
G75*
D01*
G03X246756Y35560I-14584J11005*
G01*
G75*
D01*
G03X253934Y56809I-10076J15240*
G01*
X274960Y56809D01*
X278394Y53375D01*
X265820Y53375D01*
G75*
D01*
G03X256505Y44060I0J-9315*
G01*
X256505Y27060D01*
G75*
D01*
G03X265820Y17745I9315J0*
G01*
X282820Y17745D01*
G74*
D01*
G03X289607Y20680I0J9315*
G01*
G74*
D01*
G03X291393Y19656I9713J14880*
G01*
X301734Y9315D01*
X251264Y9315D01*
X305997Y91843D02*
X299320Y98521D01*
X292643Y91843D01*
G75*
D01*
G03X305997Y91843I6677J14837*
G01*
X314157Y113357D02*
X307479Y106680D01*
X314157Y100003D01*
G75*
D01*
G03X314157Y113357I-14837J6677*
G01*
X295320Y106680D02*
G75*
D01*
G03X295320Y106680I4000J0*
G01*
X316171Y56280D02*
G74*
D01*
G03X311225Y68206I16851J0*
G01*
X293866Y85565D01*
G74*
D01*
G03X285664Y90095I11926J11905*
G01*
G74*
D01*
G03X282827Y90488I3724J16435*
G01*
G75*
D01*
G03X290635Y99680I-1507J9192*
G01*
X290635Y106154D01*
X291161Y106680D01*
X290635Y107206D01*
X290635Y113680D01*
G74*
D01*
G03X290505Y115229I9315J0*
G01*
X298930Y115229D01*
X299320Y114839D01*
X299710Y115229D01*
X328300Y115229D01*
X328589Y114940D01*
X328589Y76222D01*
G75*
D01*
G03X333524Y64284I16851J-22*
G01*
X356105Y41704D01*
X356105Y35220D01*
G75*
D01*
G03X356646Y32091I9315J0*
G01*
X326620Y32091D01*
X316171Y42540D01*
X316171Y56280D01*
X754759Y103720D02*
G75*
D01*
G03X788329Y119292I7241J28360*
G01*
X788329Y97500D01*
G75*
D01*
G03X768598Y95619I-8409J-16220*
G01*
X762859Y95619D01*
X754759Y103720D01*
X265722Y122857D02*
X255639Y132939D01*
X255639Y139911D01*
G74*
D01*
G03X257324Y137944I13601J9949*
G01*
X272274Y122995D01*
X267320Y122995D01*
G75*
D01*
G03X265722Y122857I0J-9315*
G01*
G54D12*
X375920Y95720D02*
X375920Y208220D01*
X177800Y245120D02*
X273520Y245120D01*
X106680Y203200D02*
X132080Y177800D01*
X35560Y203200D02*
X106680Y203200D01*
X457200Y121920D02*
X533400Y45720D01*
X457200Y243840D02*
X457200Y121920D01*
X533400Y45720D02*
X533400Y31120D01*
X218260Y129360D02*
X218260Y177620D01*
X208280Y119380D02*
X218260Y129360D01*
X299320Y56280D02*
X299320Y35560D01*
X124460Y96520D02*
X111760Y96520D01*
X132080Y139207D02*
X151907Y119380D01*
X208280Y119380D01*
X132080Y177800D02*
X132080Y139207D01*
X299320Y56280D02*
X281940Y73660D01*
X147320Y73660D01*
X124460Y96520D01*
X345440Y76200D02*
X345440Y121920D01*
X375920Y45720D02*
X345440Y76200D01*
X345440Y121920D02*
X335280Y132080D01*
X287020Y132080D01*
X269240Y149860D01*
X828040Y132080D02*
X815340Y132080D01*
X805180Y121920D01*
X414020Y127000D02*
X414020Y27940D01*
X401320Y15240D01*
X319640Y15240D01*
X299320Y35560D01*
X683440Y58240D02*
X665480Y76200D01*
X805180Y73660D02*
X789760Y58240D01*
X805180Y121920D02*
X805180Y73660D01*
X789760Y58240D02*
X683440Y58240D01*
G54D13*
X276360Y174280D02*
X341860Y174280D01*
X375860Y208280D01*
X276360Y191280D02*
X252240Y191280D01*
X261620Y106680D02*
X274320Y106680D01*
X241300Y180340D02*
X241300Y127000D01*
X252240Y191280D02*
X241300Y180340D01*
X241300Y127000D02*
X261620Y106680D01*
X276360Y225280D02*
X301480Y225280D01*
X312420Y236220D01*
X505460Y248920D02*
X518160Y248920D01*
X495300Y238760D02*
X505460Y248920D01*
X531500Y111120D02*
X495300Y147320D01*
X533400Y111120D02*
X531500Y111120D01*
X495300Y147320D02*
X495300Y238760D01*
X218260Y192860D02*
X218260Y177620D01*
X233680Y208280D02*
X218260Y192860D01*
X233680Y208280D02*
X375860Y208280D01*
X594360Y172720D02*
X629920Y137160D01*
X698500Y182880D02*
X698500Y139700D01*
X665480Y215900D02*
X698500Y182880D01*
X543560Y198120D02*
X561340Y215900D01*
X543560Y172720D02*
X543560Y198120D01*
X561340Y215900D02*
X665480Y215900D01*
X629920Y137160D02*
X629920Y81280D01*
X698500Y139700D02*
X756920Y81280D01*
X779920Y81280D01*
G54D14*
X-2540Y-2540D02*
X-2540Y24968D01*
X-2540Y-2540D02*
X83968Y-2540D01*
X862540Y-2540D02*
X776032Y-2540D01*
X862540Y-2540D02*
X862540Y24968D01*
X862540Y272540D02*
X862540Y245032D01*
X862540Y272540D02*
X776032Y272540D01*
X-2540Y272540D02*
X83968Y272540D01*
X-2540Y272540D02*
X-2540Y245032D01*
X-52540Y-2540D02*
X-152540Y-2540D01*
X-102540Y-52540D02*
X-102540Y47460D01*
X-140040Y-2540D02*
G75*
D01*
G02X-140040Y-2540I37500J0*
G01*
X912540Y-2540D02*
X1012540Y-2540D01*
X962540Y-52540D02*
X962540Y47460D01*
X925040Y-2540D02*
G75*
D01*
G02X925040Y-2540I37500J0*
G01*
X950040Y-2540D02*
G75*
D01*
G02X950040Y-2540I12500J0*
G01*
X-52540Y272540D02*
X-152540Y272540D01*
X-102540Y222540D02*
X-102540Y322540D01*
X-140040Y272540D02*
G75*
D01*
G02X-140040Y272540I37500J0*
G01*
X-127540Y272540D02*
G75*
D01*
G02X-127540Y272540I25000J0*
G01*
X-115040Y272540D02*
G75*
D01*
G02X-115040Y272540I12500J0*
G01*
G54D15*
X35560Y203200D03*
X35560Y30480D03*
G54D16*
X26535Y194175D02*
X44585Y194175D01*
X44585Y212225D01*
X26535Y212225D01*
X26535Y194175D01*D02*
X26535Y21455D02*
X44585Y21455D01*
X44585Y39505D01*
X26535Y39505D01*
X26535Y21455D01*D02*
G54D17*
X35560Y238760D03*
X35560Y66040D03*
X457200Y67890D03*
G54D18*
X828040Y106680D03*
X828040Y132080D03*
X375920Y95720D03*
G54D19*
X828040Y157480D03*
X375920Y45720D03*
G54D20*
X312420Y236220D03*
X269240Y149860D03*
G54D21*
X624840Y22860D03*
X624840Y53340D03*
X236680Y50800D03*
X236680Y20320D03*
X518160Y248920D03*
X543560Y248920D03*
X543560Y172720D03*
X568960Y248920D03*
X568960Y172720D03*
X594360Y248920D03*
X594360Y172720D03*
X652320Y187960D03*
X779920Y81280D03*
G54D22*
X111760Y96520D03*
X213360Y96520D03*
G54D23*
X457200Y243840D03*
G54D24*
X375860Y208280D03*
G54D25*
X276360Y174280D03*
X276360Y191280D03*
X276360Y208280D03*
X276360Y225280D03*
X276360Y242280D03*
G54D26*
X177800Y151120D03*
X177800Y245120D03*
X177800Y198120D03*
X671360Y243840D03*
X721360Y243840D03*
X771360Y243840D03*
G54D27*
X701040Y30480D03*
X726440Y30480D03*
X751840Y30480D03*
G54D28*
X533400Y111120D03*
X533400Y31120D03*
G54D29*
X299320Y35560D03*
G54D30*
X274320Y35560D03*
G54D31*
X299320Y106680D03*
G54D32*
X274320Y106680D03*
G54D33*
X106680Y50800D03*
X106680Y20320D03*
X518160Y172720D03*
X782320Y187960D03*
X629920Y81280D03*
G54D34*
X414020Y127000D03*
X665480Y76200D03*

M02*
