G04 Generated by Ultiboard 14.1 *
%FSLAX34Y34*%
%MOMM*%

%ADD10C,0.0001*%
%ADD11C,4.0000*%
%ADD12C,1.3000*%
%ADD13C,1.2000*%
%ADD14C,0.6000*%
%ADD15C,0.9000*%
%ADD16C,1.1000*%
%ADD17C,1.8000*%
%ADD18C,1.5000*%
%ADD19C,0.8000*%


G04 ColorRGB 000000 for the following layer *
%LNDrill-Copper Top-Copper Bottom*%
%LPD*%
G54D11*
X43180Y134620D03*
X762000Y132080D03*
G54D12*
X35560Y203200D03*
X35560Y238760D03*
X35560Y30480D03*
X35560Y66040D03*
X671360Y243840D03*
X721360Y243840D03*
X771360Y243840D03*
G54D13*
X828040Y106680D03*
X828040Y132080D03*
X828040Y157480D03*
X701040Y30480D03*
X726440Y30480D03*
X751840Y30480D03*
G54D14*
X312420Y236220D03*
X269240Y149860D03*
G54D15*
X624840Y22860D03*
X624840Y53340D03*
X299320Y35560D03*
X274320Y35560D03*
X236680Y50800D03*
X106680Y50800D03*
X236680Y20320D03*
X106680Y20320D03*
X518160Y248920D03*
X543560Y248920D03*
X543560Y172720D03*
X568960Y248920D03*
X568960Y172720D03*
X594360Y248920D03*
X594360Y172720D03*
X518160Y172720D03*
X652320Y187960D03*
X782320Y187960D03*
X779920Y81280D03*
X629920Y81280D03*
G54D16*
X111760Y96520D03*
X213360Y96520D03*
X375920Y95720D03*
X375920Y45720D03*
G54D17*
X457200Y243840D03*
X457200Y67890D03*
G54D18*
X177800Y151120D03*
X177800Y245120D03*
X177800Y198120D03*
G54D19*
X299320Y106680D03*
X274320Y106680D03*
X414020Y127000D03*
X665480Y76200D03*

M02*
