G04 Generated by Ultiboard 14.1 *
%FSLAX34Y34*%
%MOMM*%

%ADD10C,0.0001*%
%ADD11C,0.2540*%
%ADD12C,1.5000*%
%ADD13C,1.0000*%
%ADD14C,2.0000*%
%ADD15C,0.1270*%
%ADD16R,1.8051X1.8051*%
%ADD17C,0.9949*%
%ADD18C,2.8000*%
%ADD19C,1.8000*%
%ADD20C,1.7000*%
%ADD21R,1.7000X1.7000*%
%ADD22C,1.9000*%
%ADD23C,3.0000*%
%ADD24R,1.8000X1.8000*%
%ADD25C,2.1000*%
%ADD26R,2.1000X2.1000*%
%ADD27C,2.2000*%
%ADD28C,1.0000*%


G04 ColorRGB 00FF00 for the following layer *
%LNCopper Top*%
%LPD*%
G54D10*
G36*
X501203Y259925D02*
G75*
D01*
G03X497586Y220079I11877J-21165*
G01*
X497586Y220079D01*
X478574Y220079D01*
G74*
D01*
G03X485773Y230154I15494J18681*
G01*
X485773Y230154D01*
X471686Y230154D01*
X471686Y220079D01*
X457213Y220079D01*
G75*
D01*
G03X454474Y219817I-13J-14339*
G01*
X454474Y219817D01*
X454474Y230154D01*
X440387Y230154D01*
G74*
D01*
G03X450146Y218224I22693J8606*
G01*
G74*
D01*
G03X447061Y215879I7054J12484*
G01*
X447061Y215879D01*
X429745Y198563D01*
G74*
D01*
G03X424614Y210820I18265J443*
G01*
G74*
D01*
G03X428563Y217041I13134J12700*
G01*
X428563Y217041D01*
X417959Y217041D01*
X417959Y215203D01*
G75*
D01*
G03X405001Y215203I-6479J-17083*
G01*
X405001Y215203D01*
X405001Y217041D01*
X394397Y217041D01*
G74*
D01*
G03X398346Y210820I17083J6479*
G01*
G75*
D01*
G03X398346Y185420I13134J-12700*
G01*
G75*
D01*
G03X396002Y163013I13134J-12700*
G01*
G74*
D01*
G03X393165Y156320I6478J6693*
G01*
X393165Y156320D01*
X393165Y138320D01*
G75*
D01*
G03X402480Y129005I9315J0*
G01*
X402480Y129005D01*
X418606Y129005D01*
G74*
D01*
G03X421661Y124481I13194J5615*
G01*
X421661Y124481D01*
X422210Y123931D01*
X292135Y123931D01*
X292135Y140580D01*
G74*
D01*
G03X282820Y149895I9315J0*
G01*
X282820Y149895D01*
X265820Y149895D01*
G75*
D01*
G03X256505Y140580I0J-9315*
G01*
X256505Y140580D01*
X256505Y123931D01*
X244240Y123931D01*
G75*
D01*
G03X240008Y123391I0J-16851*
G01*
G74*
D01*
G03X232324Y118996I4232J16311*
G01*
X232324Y118996D01*
X219710Y106381D01*
X204966Y121125D01*
G74*
D01*
G03X193040Y126071I11926J11905*
G01*
X193040Y126071D01*
X156034Y126071D01*
G75*
D01*
G03X148305Y169540I-13794J19969*
G01*
G75*
D01*
G03X148305Y216540I-6065J23500*
G01*
G75*
D01*
G03X156155Y259925I-6065J23500*
G01*
X156155Y259925D01*
X451203Y259925D01*
G74*
D01*
G03X440387Y247366I11877J21165*
G01*
X440387Y247366D01*
X454474Y247366D01*
X454474Y259925D01*
X471686Y259925D01*
X471686Y247366D01*
X485773Y247366D01*
G74*
D01*
G03X474957Y259925I22693J8606*
G01*
X474957Y259925D01*
X501203Y259925D01*
D02*
G37*
%LPC*%
G36*
X394397Y229999D02*
X394397Y229999D01*
X405001Y229999D01*
X405001Y240603D01*
G74*
D01*
G03X394397Y229999I6479J17083*
G01*
D02*
G37*
G36*
X322146Y210820D02*
G75*
D01*
G03X322146Y185420I13134J-12700*
G01*
G75*
D01*
G03X322146Y160020I13134J-12700*
G01*
G75*
D01*
G03X348414Y160020I13134J-12700*
G01*
G75*
D01*
G03X348414Y185420I-13134J12700*
G01*
G75*
D01*
G03X348414Y210820I-13134J12700*
G01*
G75*
D01*
G03X322146Y210820I-13134J12700*
G01*
D02*
G37*
G36*
X244345Y228260D02*
G75*
D01*
G03X253660Y218945I9315J0*
G01*
X253660Y218945D01*
X274660Y218945D01*
G75*
D01*
G03X283975Y228260I0J9315*
G01*
X283975Y228260D01*
X283975Y249260D01*
G74*
D01*
G03X274660Y258575I9315J0*
G01*
X274660Y258575D01*
X253660Y258575D01*
G75*
D01*
G03X244345Y249260I0J-9315*
G01*
X244345Y249260D01*
X244345Y228260D01*
D02*
G37*
G36*
X428563Y229999D02*
G74*
D01*
G03X417959Y240603I17083J6479*
G01*
X417959Y240603D01*
X417959Y229999D01*
X428563Y229999D01*
D02*
G37*
G36*
X456580Y238760D02*
G75*
D01*
G03X456580Y238760I6500J0*
G01*
D02*
G37*
G36*
X406980Y223520D02*
G75*
D01*
G03X406980Y223520I4500J0*
G01*
D02*
G37*
G36*
X282188Y196874D02*
X282188Y196874D01*
X274075Y188760D01*
X282188Y180646D01*
G75*
D01*
G03X282188Y196874I-18028J8114*
G01*
D02*
G37*
G36*
X246132Y196874D02*
G75*
D01*
G03X246132Y180646I18028J-8114*
G01*
X246132Y180646D01*
X254245Y188760D01*
X246132Y196874D01*
D02*
G37*
G36*
X258660Y188760D02*
G75*
D01*
G03X258660Y188760I5500J0*
G01*
D02*
G37*
G36*
X256046Y206788D02*
X256046Y206788D01*
X264160Y198675D01*
X272274Y206788D01*
G75*
D01*
G03X256046Y206788I-8114J-18028*
G01*
D02*
G37*
G36*
X272274Y170732D02*
X272274Y170732D01*
X264160Y178845D01*
X256046Y170732D01*
G75*
D01*
G03X272274Y170732I8114J18028*
G01*
D02*
G37*
%LPD*%
G36*
X17882Y223628D02*
G75*
D01*
G02X25574Y259779I17678J15132*
G01*
G74*
D01*
G03X9303Y241660I2481J18594*
G01*
G74*
D01*
G02X9315Y241185I9303J475*
G01*
X9315Y241185D01*
X9315Y28055D01*
G75*
D01*
G02X9303Y27580I-9315J0*
G01*
G74*
D01*
G03X12958Y16922I18752J475*
G01*
G75*
D01*
G02X12221Y21455I13577J4533*
G01*
X12221Y21455D01*
X12221Y39505D01*
G74*
D01*
G02X17882Y50908I14314J0*
G01*
G75*
D01*
G02X28965Y88356I17678J15132*
G01*
X28965Y88356D01*
X46105Y105497D01*
G75*
D01*
G02X72303Y131695I-2925J29123*
G01*
X72303Y131695D01*
X77129Y136520D01*
X77129Y215888D01*
G75*
D01*
G02X82064Y227816I16851J12*
G01*
X82064Y227816D01*
X84934Y230685D01*
X84934Y230685D01*
X106204Y251956D01*
G75*
D01*
G02X118127Y256891I11916J-11916*
G01*
X118127Y256891D01*
X124774Y256891D01*
G74*
D01*
G02X128325Y259925I17466J16851*
G01*
X128325Y259925D01*
X45231Y259925D01*
G75*
D01*
G02X53238Y223628I-9671J-21165*
G01*
G74*
D01*
G02X58899Y212225I8653J11403*
G01*
X58899Y212225D01*
X58899Y211476D01*
X43836Y211476D01*
X43836Y217011D01*
G75*
D01*
G02X27284Y217011I-8276J21749*
G01*
X27284Y217011D01*
X27284Y211476D01*
X12221Y211476D01*
X12221Y212225D01*
G74*
D01*
G02X17882Y223628I14314J0*
G01*
D02*
G37*
%LPC*%
G36*
X29060Y203200D02*
G75*
D01*
G02X29060Y203200I6500J0*
G01*
D02*
G37*
G36*
X44585Y179861D02*
X44585Y179861D01*
X43836Y179861D01*
X43836Y194924D01*
X58899Y194924D01*
X58899Y194175D01*
G75*
D01*
G02X44585Y179861I-14314J0*
G01*
D02*
G37*
G36*
X26535Y179861D02*
G75*
D01*
G02X12221Y194175I0J14314*
G01*
X12221Y194175D01*
X12221Y194924D01*
X27284Y194924D01*
X27284Y179861D01*
X26535Y179861D01*
D02*
G37*
%LPD*%
G36*
X432200Y82209D02*
X432200Y82209D01*
X524201Y82209D01*
G75*
D01*
G03X527762Y63500I19359J-6009*
G01*
G74*
D01*
G03X525528Y60059I15798J12700*
G01*
X525528Y60059D01*
X483887Y60059D01*
G74*
D01*
G03X485783Y63520I11447J8521*
G01*
X485783Y63520D01*
X477500Y63520D01*
X477500Y60059D01*
X467380Y60059D01*
X467380Y63520D01*
X459097Y63520D01*
G74*
D01*
G03X460993Y60059I13343J5060*
G01*
X460993Y60059D01*
X369239Y60059D01*
G74*
D01*
G03X377763Y69721I8559J16141*
G01*
X377763Y69721D01*
X367159Y69721D01*
X367159Y60059D01*
X365760Y60059D01*
G75*
D01*
G03X363667Y59905I0J-14339*
G01*
G74*
D01*
G03X360115Y58901I2093J14185*
G01*
G75*
D01*
G03X376430Y31381I565J-18261*
G01*
X376430Y31381D01*
X440455Y31381D01*
G75*
D01*
G03X435697Y9315I11665J-14061*
G01*
X435697Y9315D01*
X261936Y9315D01*
G74*
D01*
G03X262155Y11320I9096J2005*
G01*
X262155Y11320D01*
X262155Y29320D01*
G74*
D01*
G03X258490Y36726I9315J0*
G01*
G75*
D01*
G03X235291Y64957I-11650J14074*
G01*
X235291Y64957D01*
X235291Y73012D01*
G74*
D01*
G03X236202Y75210I16851J8268*
G01*
X236202Y75210D01*
X251220Y90229D01*
X268680Y90229D01*
G75*
D01*
G03X279960Y90229I5640J16851*
G01*
X279960Y90229D01*
X348976Y90229D01*
G74*
D01*
G03X343597Y82679I11704J14029*
G01*
X343597Y82679D01*
X354201Y82679D01*
X354201Y90229D01*
X367159Y90229D01*
X367159Y82679D01*
X377763Y82679D01*
G74*
D01*
G03X372384Y90229I17083J6479*
G01*
X372384Y90229D01*
X417200Y90229D01*
X420284Y87144D01*
G74*
D01*
G03X427195Y82969I11916J11916*
G01*
G75*
D01*
G03X432200Y82209I5005J16091*
G01*
D02*
G37*
%LPC*%
G36*
X470685Y66147D02*
G75*
D01*
G03X470685Y66147I1755J2433*
G01*
D02*
G37*
G36*
X477500Y81923D02*
X477500Y81923D01*
X477500Y73640D01*
X485783Y73640D01*
G74*
D01*
G03X477500Y81923I13343J5060*
G01*
D02*
G37*
G36*
X354201Y59117D02*
X354201Y59117D01*
X354201Y69721D01*
X343597Y69721D01*
G74*
D01*
G03X354201Y59117I17083J6479*
G01*
D02*
G37*
G36*
X459097Y73640D02*
X459097Y73640D01*
X467380Y73640D01*
X467380Y81923D01*
G74*
D01*
G03X459097Y73640I5060J13343*
G01*
D02*
G37*
G36*
X356180Y76200D02*
G75*
D01*
G03X356180Y76200I4500J0*
G01*
D02*
G37*
%LPD*%
G36*
X574957Y259925D02*
G75*
D01*
G02X577419Y219179I-11877J-21165*
G01*
X577419Y219179D01*
X577419Y217640D01*
G75*
D01*
G02X573209Y207491I-14339J0*
G01*
X573209Y207491D01*
X568017Y202299D01*
X599440Y202299D01*
G74*
D01*
G02X609589Y198089I0J14339*
G01*
X609589Y198089D01*
X614649Y193029D01*
G74*
D01*
G02X618859Y182880I10129J10149*
G01*
X618859Y182880D01*
X618859Y181547D01*
G74*
D01*
G02X624335Y173060I3839J8487*
G01*
X624335Y173060D01*
X624335Y152060D01*
G75*
D01*
G02X622163Y146081I-9315J0*
G01*
G75*
D01*
G02X619671Y124460I-17643J-8921*
G01*
G75*
D01*
G02X594181Y94909I-15151J-12700*
G01*
X594181Y94909D01*
X593720Y94909D01*
X585966Y87155D01*
G74*
D01*
G02X577586Y82586I11926J11905*
G01*
G75*
D01*
G02X574030Y82209I-3546J16474*
G01*
X574030Y82209D01*
X562919Y82209D01*
G75*
D01*
G02X559358Y63500I-19359J-6009*
G01*
G75*
D01*
G02X559358Y38100I-15798J-12700*
G01*
G75*
D01*
G02X555895Y9315I-15798J-12700*
G01*
X555895Y9315D01*
X606945Y9315D01*
G74*
D01*
G02X607420Y9303I0J9315*
G01*
G74*
D01*
G03X625697Y27580I475J18752*
G01*
G75*
D01*
G02X625685Y28055I9303J475*
G01*
X625685Y28055D01*
X625685Y241185D01*
G74*
D01*
G02X625697Y241660I9315J0*
G01*
G74*
D01*
G03X607420Y259937I18752J475*
G01*
G74*
D01*
G02X606945Y259925I475J9303*
G01*
X606945Y259925D01*
X574957Y259925D01*
D02*
G37*
G36*
X206524Y23644D02*
G75*
D01*
G02X201589Y35573I11916J11916*
G01*
X201589Y35573D01*
X201589Y73012D01*
G74*
D01*
G02X199868Y78561I16851J8268*
G01*
X199868Y78561D01*
X186060Y92369D01*
X131984Y92369D01*
G75*
D01*
G02X130158Y68053I-15144J-11089*
G01*
G74*
D01*
G02X135155Y59800I4318J8253*
G01*
X135155Y59800D01*
X135155Y41800D01*
G75*
D01*
G02X127359Y32610I-9315J0*
G01*
G75*
D01*
G02X128424Y9315I-13519J-12290*
G01*
X128424Y9315D01*
X220854Y9315D01*
X206524Y23644D01*
D02*
G37*
G36*
X470435Y138789D02*
G75*
D01*
G02X481412Y115911I-535J-14329*
G01*
X481412Y115911D01*
X516621Y115911D01*
G75*
D01*
G02X565419Y115911I24399J16169*
G01*
X565419Y115911D01*
X567060Y115911D01*
X574824Y123676D01*
G74*
D01*
G02X581867Y127891I11916J11916*
G01*
G74*
D01*
G02X586694Y128611I4873J16131*
G01*
G75*
D01*
G02X586877Y146081I17826J8549*
G01*
G75*
D01*
G02X584705Y152060I7143J5979*
G01*
X584705Y152060D01*
X584705Y173060D01*
G74*
D01*
G02X584722Y173621I9315J0*
G01*
X584722Y173621D01*
X508994Y173621D01*
G75*
D01*
G02X476526Y173621I-16234J-8381*
G01*
X476526Y173621D01*
X470759Y173621D01*
X470685Y173547D01*
X470685Y173547D01*
X466459Y169321D01*
X466459Y163953D01*
G74*
D01*
G02X470435Y156320I5339J7633*
G01*
X470435Y156320D01*
X470435Y138789D01*
D02*
G37*
G36*
X136175Y169540D02*
G75*
D01*
G02X136175Y216540I6065J23500*
G01*
G74*
D01*
G02X124935Y223024I6065J23500*
G01*
X124935Y223024D01*
X110831Y208920D01*
X110831Y129540D01*
G75*
D01*
G02X110398Y125743I-16851J0*
G01*
G75*
D01*
G02X113712Y126071I3307J-16523*
G01*
X113712Y126071D01*
X128446Y126071D01*
G75*
D01*
G02X136175Y169540I13794J19969*
G01*
D02*
G37*
G36*
X99256Y9315D02*
G75*
D01*
G02X102190Y34394I14584J11005*
G01*
G75*
D01*
G02X98525Y41800I5650J7406*
G01*
X98525Y41800D01*
X98525Y45111D01*
G74*
D01*
G02X95725Y41414I14705J8229*
G01*
X95725Y41414D01*
X72886Y18575D01*
G74*
D01*
G02X60960Y13629I11926J11905*
G01*
X60960Y13629D01*
X56570Y13629D01*
G74*
D01*
G02X52169Y9315I11985J7826*
G01*
X52169Y9315D01*
X99256Y9315D01*
D02*
G37*
G36*
X524192Y31381D02*
X524192Y31381D01*
X499716Y31381D01*
X492760Y24425D01*
X485804Y31381D01*
X463785Y31381D01*
G75*
D01*
G02X468543Y9315I-11665J-14061*
G01*
X468543Y9315D01*
X474445Y9315D01*
X474445Y24240D01*
G74*
D01*
G02X474446Y24369I9315J0*
G01*
X474446Y24369D01*
X483575Y15240D01*
X477650Y9315D01*
X507870Y9315D01*
X501945Y15240D01*
X511074Y24369D01*
G74*
D01*
G02X511075Y24240I9314J129*
G01*
X511075Y24240D01*
X511075Y9315D01*
X531225Y9315D01*
G75*
D01*
G02X524192Y31381I12335J16085*
G01*
D02*
G37*
%LPC*%
G36*
X488260Y15240D02*
G75*
D01*
G02X488260Y15240I4500J0*
G01*
D02*
G37*
%LPD*%
G36*
X546344Y221183D02*
G75*
D01*
G02X551203Y259925I16736J17577*
G01*
X551203Y259925D01*
X524957Y259925D01*
G75*
D01*
G02X528574Y220079I-11877J-21165*
G01*
X528574Y220079D01*
X545241Y220079D01*
X546344Y221183D01*
D02*
G37*
G54D11*
X29060Y203200D02*
G75*
D01*
G02X29060Y203200I6500J0*
G01*
X44585Y179861D02*
X43836Y179861D01*
X43836Y194924D01*
X58899Y194924D01*
X58899Y194175D01*
G75*
D01*
G02X44585Y179861I-14314J0*
G01*
X26535Y179861D02*
G75*
D01*
G02X12221Y194175I0J14314*
G01*
X12221Y194924D01*
X27284Y194924D01*
X27284Y179861D01*
X26535Y179861D01*
X17882Y223628D02*
G75*
D01*
G02X25574Y259779I17678J15132*
G01*
G74*
D01*
G03X9303Y241660I2481J18594*
G01*
G74*
D01*
G02X9315Y241185I9303J475*
G01*
X9315Y28055D01*
G75*
D01*
G02X9303Y27580I-9315J0*
G01*
G74*
D01*
G03X12958Y16922I18752J475*
G01*
G75*
D01*
G02X12221Y21455I13577J4533*
G01*
X12221Y39505D01*
G74*
D01*
G02X17882Y50908I14314J0*
G01*
G75*
D01*
G02X28965Y88356I17678J15132*
G01*
X46105Y105497D01*
G75*
D01*
G02X72303Y131695I-2925J29123*
G01*
X77129Y136520D01*
X77129Y215888D01*
G75*
D01*
G02X82064Y227816I16851J12*
G01*
X84934Y230685D01*
X84934Y230685D01*
X106204Y251956D01*
G75*
D01*
G02X118127Y256891I11916J-11916*
G01*
X124774Y256891D01*
G74*
D01*
G02X128325Y259925I17466J16851*
G01*
X45231Y259925D01*
G75*
D01*
G02X53238Y223628I-9671J-21165*
G01*
G74*
D01*
G02X58899Y212225I8653J11403*
G01*
X58899Y211476D01*
X43836Y211476D01*
X43836Y217011D01*
G75*
D01*
G02X27284Y217011I-8276J21749*
G01*
X27284Y211476D01*
X12221Y211476D01*
X12221Y212225D01*
G74*
D01*
G02X17882Y223628I14314J0*
G01*
X99256Y9315D02*
G75*
D01*
G02X102190Y34394I14584J11005*
G01*
G75*
D01*
G02X98525Y41800I5650J7406*
G01*
X98525Y45111D01*
G74*
D01*
G02X95725Y41414I14705J8229*
G01*
X72886Y18575D01*
G74*
D01*
G02X60960Y13629I11926J11905*
G01*
X56570Y13629D01*
G74*
D01*
G02X52169Y9315I11985J7826*
G01*
X99256Y9315D01*
X206524Y23644D02*
G75*
D01*
G02X201589Y35573I11916J11916*
G01*
X201589Y73012D01*
G74*
D01*
G02X199868Y78561I16851J8268*
G01*
X186060Y92369D01*
X131984Y92369D01*
G75*
D01*
G02X130158Y68053I-15144J-11089*
G01*
G74*
D01*
G02X135155Y59800I4318J8253*
G01*
X135155Y41800D01*
G75*
D01*
G02X127359Y32610I-9315J0*
G01*
G75*
D01*
G02X128424Y9315I-13519J-12290*
G01*
X220854Y9315D01*
X206524Y23644D01*
X470685Y66147D02*
G75*
D01*
G03X470685Y66147I1755J2433*
G01*
X477500Y81923D02*
X477500Y73640D01*
X485783Y73640D01*
G74*
D01*
G03X477500Y81923I13343J5060*
G01*
X354201Y59117D02*
X354201Y69721D01*
X343597Y69721D01*
G74*
D01*
G03X354201Y59117I17083J6479*
G01*
X459097Y73640D02*
X467380Y73640D01*
X467380Y81923D01*
G74*
D01*
G03X459097Y73640I5060J13343*
G01*
X356180Y76200D02*
G75*
D01*
G03X356180Y76200I4500J0*
G01*
X432200Y82209D02*
X524201Y82209D01*
G75*
D01*
G03X527762Y63500I19359J-6009*
G01*
G74*
D01*
G03X525528Y60059I15798J12700*
G01*
X483887Y60059D01*
G74*
D01*
G03X485783Y63520I11447J8521*
G01*
X477500Y63520D01*
X477500Y60059D01*
X467380Y60059D01*
X467380Y63520D01*
X459097Y63520D01*
G74*
D01*
G03X460993Y60059I13343J5060*
G01*
X369239Y60059D01*
G74*
D01*
G03X377763Y69721I8559J16141*
G01*
X367159Y69721D01*
X367159Y60059D01*
X365760Y60059D01*
G75*
D01*
G03X363667Y59905I0J-14339*
G01*
G74*
D01*
G03X360115Y58901I2093J14185*
G01*
G75*
D01*
G03X376430Y31381I565J-18261*
G01*
X440455Y31381D01*
G75*
D01*
G03X435697Y9315I11665J-14061*
G01*
X261936Y9315D01*
G74*
D01*
G03X262155Y11320I9096J2005*
G01*
X262155Y29320D01*
G74*
D01*
G03X258490Y36726I9315J0*
G01*
G75*
D01*
G03X235291Y64957I-11650J14074*
G01*
X235291Y73012D01*
G74*
D01*
G03X236202Y75210I16851J8268*
G01*
X251220Y90229D01*
X268680Y90229D01*
G75*
D01*
G03X279960Y90229I5640J16851*
G01*
X348976Y90229D01*
G74*
D01*
G03X343597Y82679I11704J14029*
G01*
X354201Y82679D01*
X354201Y90229D01*
X367159Y90229D01*
X367159Y82679D01*
X377763Y82679D01*
G74*
D01*
G03X372384Y90229I17083J6479*
G01*
X417200Y90229D01*
X420284Y87144D01*
G74*
D01*
G03X427195Y82969I11916J11916*
G01*
G75*
D01*
G03X432200Y82209I5005J16091*
G01*
X488260Y15240D02*
G75*
D01*
G02X488260Y15240I4500J0*
G01*
X524192Y31381D02*
X499716Y31381D01*
X492760Y24425D01*
X485804Y31381D01*
X463785Y31381D01*
G75*
D01*
G02X468543Y9315I-11665J-14061*
G01*
X474445Y9315D01*
X474445Y24240D01*
G74*
D01*
G02X474446Y24369I9315J0*
G01*
X483575Y15240D01*
X477650Y9315D01*
X507870Y9315D01*
X501945Y15240D01*
X511074Y24369D01*
G74*
D01*
G02X511075Y24240I9314J129*
G01*
X511075Y9315D01*
X531225Y9315D01*
G75*
D01*
G02X524192Y31381I12335J16085*
G01*
X574957Y259925D02*
G75*
D01*
G02X577419Y219179I-11877J-21165*
G01*
X577419Y217640D01*
G75*
D01*
G02X573209Y207491I-14339J0*
G01*
X568017Y202299D01*
X599440Y202299D01*
G74*
D01*
G02X609589Y198089I0J14339*
G01*
X614649Y193029D01*
G74*
D01*
G02X618859Y182880I10129J10149*
G01*
X618859Y181547D01*
G74*
D01*
G02X624335Y173060I3839J8487*
G01*
X624335Y152060D01*
G75*
D01*
G02X622163Y146081I-9315J0*
G01*
G75*
D01*
G02X619671Y124460I-17643J-8921*
G01*
G75*
D01*
G02X594181Y94909I-15151J-12700*
G01*
X593720Y94909D01*
X585966Y87155D01*
G74*
D01*
G02X577586Y82586I11926J11905*
G01*
G75*
D01*
G02X574030Y82209I-3546J16474*
G01*
X562919Y82209D01*
G75*
D01*
G02X559358Y63500I-19359J-6009*
G01*
G75*
D01*
G02X559358Y38100I-15798J-12700*
G01*
G75*
D01*
G02X555895Y9315I-15798J-12700*
G01*
X606945Y9315D01*
G74*
D01*
G02X607420Y9303I0J9315*
G01*
G74*
D01*
G03X625697Y27580I475J18752*
G01*
G75*
D01*
G02X625685Y28055I9303J475*
G01*
X625685Y241185D01*
G74*
D01*
G02X625697Y241660I9315J0*
G01*
G74*
D01*
G03X607420Y259937I18752J475*
G01*
G74*
D01*
G02X606945Y259925I475J9303*
G01*
X574957Y259925D01*
X394397Y229999D02*
X405001Y229999D01*
X405001Y240603D01*
G74*
D01*
G03X394397Y229999I6479J17083*
G01*
X322146Y210820D02*
G75*
D01*
G03X322146Y185420I13134J-12700*
G01*
G75*
D01*
G03X322146Y160020I13134J-12700*
G01*
G75*
D01*
G03X348414Y160020I13134J-12700*
G01*
G75*
D01*
G03X348414Y185420I-13134J12700*
G01*
G75*
D01*
G03X348414Y210820I-13134J12700*
G01*
G75*
D01*
G03X322146Y210820I-13134J12700*
G01*
X244345Y228260D02*
G75*
D01*
G03X253660Y218945I9315J0*
G01*
X274660Y218945D01*
G75*
D01*
G03X283975Y228260I0J9315*
G01*
X283975Y249260D01*
G74*
D01*
G03X274660Y258575I9315J0*
G01*
X253660Y258575D01*
G75*
D01*
G03X244345Y249260I0J-9315*
G01*
X244345Y228260D01*
X428563Y229999D02*
G74*
D01*
G03X417959Y240603I17083J6479*
G01*
X417959Y229999D01*
X428563Y229999D01*
X456580Y238760D02*
G75*
D01*
G03X456580Y238760I6500J0*
G01*
X406980Y223520D02*
G75*
D01*
G03X406980Y223520I4500J0*
G01*
X282188Y196874D02*
X274075Y188760D01*
X282188Y180646D01*
G75*
D01*
G03X282188Y196874I-18028J8114*
G01*
X246132Y196874D02*
G75*
D01*
G03X246132Y180646I18028J-8114*
G01*
X254245Y188760D01*
X246132Y196874D01*
X258660Y188760D02*
G75*
D01*
G03X258660Y188760I5500J0*
G01*
X256046Y206788D02*
X264160Y198675D01*
X272274Y206788D01*
G75*
D01*
G03X256046Y206788I-8114J-18028*
G01*
X272274Y170732D02*
X264160Y178845D01*
X256046Y170732D01*
G75*
D01*
G03X272274Y170732I8114J18028*
G01*
X501203Y259925D02*
G75*
D01*
G03X497586Y220079I11877J-21165*
G01*
X478574Y220079D01*
G74*
D01*
G03X485773Y230154I15494J18681*
G01*
X471686Y230154D01*
X471686Y220079D01*
X457213Y220079D01*
G75*
D01*
G03X454474Y219817I-13J-14339*
G01*
X454474Y230154D01*
X440387Y230154D01*
G74*
D01*
G03X450146Y218224I22693J8606*
G01*
G74*
D01*
G03X447061Y215879I7054J12484*
G01*
X429745Y198563D01*
G74*
D01*
G03X424614Y210820I18265J443*
G01*
G74*
D01*
G03X428563Y217041I13134J12700*
G01*
X417959Y217041D01*
X417959Y215203D01*
G75*
D01*
G03X405001Y215203I-6479J-17083*
G01*
X405001Y217041D01*
X394397Y217041D01*
G74*
D01*
G03X398346Y210820I17083J6479*
G01*
G75*
D01*
G03X398346Y185420I13134J-12700*
G01*
G75*
D01*
G03X396002Y163013I13134J-12700*
G01*
G74*
D01*
G03X393165Y156320I6478J6693*
G01*
X393165Y138320D01*
G75*
D01*
G03X402480Y129005I9315J0*
G01*
X418606Y129005D01*
G74*
D01*
G03X421661Y124481I13194J5615*
G01*
X422210Y123931D01*
X292135Y123931D01*
X292135Y140580D01*
G74*
D01*
G03X282820Y149895I9315J0*
G01*
X265820Y149895D01*
G75*
D01*
G03X256505Y140580I0J-9315*
G01*
X256505Y123931D01*
X244240Y123931D01*
G75*
D01*
G03X240008Y123391I0J-16851*
G01*
G74*
D01*
G03X232324Y118996I4232J16311*
G01*
X219710Y106381D01*
X204966Y121125D01*
G74*
D01*
G03X193040Y126071I11926J11905*
G01*
X156034Y126071D01*
G75*
D01*
G03X148305Y169540I-13794J19969*
G01*
G75*
D01*
G03X148305Y216540I-6065J23500*
G01*
G75*
D01*
G03X156155Y259925I-6065J23500*
G01*
X451203Y259925D01*
G74*
D01*
G03X440387Y247366I11877J21165*
G01*
X454474Y247366D01*
X454474Y259925D01*
X471686Y259925D01*
X471686Y247366D01*
X485773Y247366D01*
G74*
D01*
G03X474957Y259925I22693J8606*
G01*
X501203Y259925D01*
X136175Y169540D02*
G75*
D01*
G02X136175Y216540I6065J23500*
G01*
G74*
D01*
G02X124935Y223024I6065J23500*
G01*
X110831Y208920D01*
X110831Y129540D01*
G75*
D01*
G02X110398Y125743I-16851J0*
G01*
G75*
D01*
G02X113712Y126071I3307J-16523*
G01*
X128446Y126071D01*
G75*
D01*
G02X136175Y169540I13794J19969*
G01*
X470435Y138789D02*
G75*
D01*
G02X481412Y115911I-535J-14329*
G01*
X516621Y115911D01*
G75*
D01*
G02X565419Y115911I24399J16169*
G01*
X567060Y115911D01*
X574824Y123676D01*
G74*
D01*
G02X581867Y127891I11916J11916*
G01*
G74*
D01*
G02X586694Y128611I4873J16131*
G01*
G75*
D01*
G02X586877Y146081I17826J8549*
G01*
G75*
D01*
G02X584705Y152060I7143J5979*
G01*
X584705Y173060D01*
G74*
D01*
G02X584722Y173621I9315J0*
G01*
X508994Y173621D01*
G75*
D01*
G02X476526Y173621I-16234J-8381*
G01*
X470759Y173621D01*
X470685Y173547D01*
X470685Y173547D01*
X466459Y169321D01*
X466459Y163953D01*
G74*
D01*
G02X470435Y156320I5339J7633*
G01*
X470435Y138789D01*
X546344Y221183D02*
G75*
D01*
G02X551203Y259925I16736J17577*
G01*
X524957Y259925D01*
G75*
D01*
G02X528574Y220079I-11877J-21165*
G01*
X545241Y220079D01*
X546344Y221183D01*
G54D12*
X193040Y109220D02*
X218440Y83820D01*
X244240Y107080D02*
X218440Y81280D01*
X218440Y35560D02*
X218440Y83820D01*
X113705Y109220D02*
X193040Y109220D01*
X424180Y107080D02*
X244240Y107080D01*
X218440Y35560D02*
X233680Y20320D01*
X83820Y79335D02*
X113705Y109220D01*
X432200Y99060D02*
X424180Y107080D01*
X574040Y99060D02*
X432200Y99060D01*
X233680Y20320D02*
X243840Y20320D01*
X83820Y53340D02*
X83820Y79335D01*
X586740Y111760D02*
X574040Y99060D01*
X60960Y30480D02*
X83820Y53340D01*
X604520Y111760D02*
X586740Y111760D01*
X35560Y30480D02*
X60960Y30480D01*
X118120Y240040D02*
X142240Y240040D01*
X93980Y215900D02*
X118120Y240040D01*
X93980Y129540D02*
X93980Y215900D01*
X35560Y71120D02*
X93980Y129540D01*
X35560Y71120D02*
X35560Y66040D01*
X411480Y223520D02*
X411480Y254000D01*
G54D13*
X538480Y45720D02*
X365760Y45720D01*
X360680Y40640D01*
X538480Y45720D02*
X543560Y50800D01*
X563080Y217640D02*
X563080Y238760D01*
X551180Y205740D02*
X563080Y217640D01*
X457200Y205740D02*
X551180Y205740D01*
X431800Y180340D02*
X457200Y205740D01*
X431800Y134620D02*
X431800Y180340D01*
X441960Y124460D02*
X431800Y134620D01*
X469900Y124460D02*
X441960Y124460D01*
X604520Y182880D02*
X604520Y162560D01*
X599440Y187960D02*
X604520Y182880D01*
X464820Y187960D02*
X599440Y187960D01*
X452120Y175260D02*
X464820Y187960D01*
X452120Y147320D02*
X452120Y175260D01*
X368300Y68580D02*
X360680Y76200D01*
X472440Y68580D02*
X368300Y68580D01*
G54D14*
X320040Y254000D02*
X447840Y254000D01*
X299720Y233680D02*
X320040Y254000D01*
X447840Y254000D02*
X463080Y238760D01*
X299720Y213360D02*
X299720Y233680D01*
X275120Y188760D02*
X299720Y213360D01*
X264160Y188760D02*
X275120Y188760D01*
G54D15*
X-2540Y-2540D02*
X-2540Y24892D01*
X-2540Y-2540D02*
X61468Y-2540D01*
X637540Y-2540D02*
X573532Y-2540D01*
X637540Y-2540D02*
X637540Y24892D01*
X637540Y271780D02*
X637540Y244348D01*
X637540Y271780D02*
X573532Y271780D01*
X-2540Y271780D02*
X61468Y271780D01*
X-2540Y271780D02*
X-2540Y244348D01*
X-52540Y-2540D02*
X-152540Y-2540D01*
X-102540Y-52540D02*
X-102540Y47460D01*
X-140040Y-2540D02*
G75*
D01*
G02X-140040Y-2540I37500J0*
G01*
X687540Y-2540D02*
X787540Y-2540D01*
X737540Y-52540D02*
X737540Y47460D01*
X700040Y-2540D02*
G75*
D01*
G02X700040Y-2540I37500J0*
G01*
X725040Y-2540D02*
G75*
D01*
G02X725040Y-2540I12500J0*
G01*
X-52540Y271780D02*
X-152540Y271780D01*
X-102540Y221780D02*
X-102540Y321780D01*
X-140040Y271780D02*
G75*
D01*
G02X-140040Y271780I37500J0*
G01*
X-127540Y271780D02*
G75*
D01*
G02X-127540Y271780I25000J0*
G01*
X-115040Y271780D02*
G75*
D01*
G02X-115040Y271780I12500J0*
G01*
G54D16*
X35560Y30480D03*
X35560Y203200D03*
G54D17*
X26535Y21455D02*
X44585Y21455D01*
X44585Y39505D01*
X26535Y39505D01*
X26535Y21455D01*D02*
X26535Y194175D02*
X44585Y194175D01*
X44585Y212225D01*
X26535Y212225D01*
X26535Y194175D01*D02*
G54D18*
X35560Y66040D03*
X35560Y238760D03*
G54D19*
X360680Y76200D03*
X360680Y40640D03*
X335280Y147320D03*
X335280Y172720D03*
X411480Y172720D03*
X335280Y198120D03*
X411480Y198120D03*
X335280Y223520D03*
X411480Y223520D03*
X452120Y17320D03*
X113840Y20320D03*
X246840Y50800D03*
X492760Y165240D03*
G54D20*
X274320Y107080D03*
G54D21*
X274320Y132080D03*
G54D22*
X218440Y81280D03*
X116840Y81280D03*
G54D23*
X142240Y146040D03*
X142240Y240040D03*
X142240Y193040D03*
X463080Y238760D03*
X513080Y238760D03*
X563080Y238760D03*
G54D24*
X411480Y147320D03*
X452120Y147320D03*
X243840Y20320D03*
X116840Y50800D03*
X492760Y15240D03*
G54D25*
X604520Y111760D03*
X604520Y137160D03*
X264160Y188760D03*
G54D26*
X604520Y162560D03*
X264160Y238760D03*
G54D27*
X543560Y25400D03*
X543560Y50800D03*
X543560Y76200D03*
G54D28*
X469900Y124460D03*
X472440Y68580D03*

M02*
