G04 Generated by Ultiboard 14.1 *
%FSLAX34Y34*%
%MOMM*%

%ADD10C,0.0001*%
%ADD11C,4.0000*%
%ADD12C,1.3000*%
%ADD13C,0.9000*%
%ADD14C,1.1000*%
%ADD15C,1.5000*%
%ADD16C,1.2000*%
%ADD17C,0.6000*%


G04 ColorRGB 000000 for the following layer *
%LNDrill-Copper Top-Copper Bottom*%
%LPD*%
G54D11*
X541020Y132080D03*
X43180Y134620D03*
G54D12*
X35560Y30480D03*
X35560Y66040D03*
X35560Y203200D03*
X35560Y238760D03*
X463080Y238760D03*
X513080Y238760D03*
X563080Y238760D03*
G54D13*
X360680Y76200D03*
X360680Y40640D03*
X274320Y107080D03*
X274320Y132080D03*
X335280Y147320D03*
X335280Y172720D03*
X411480Y172720D03*
X335280Y198120D03*
X411480Y198120D03*
X335280Y223520D03*
X411480Y223520D03*
X411480Y147320D03*
X452120Y17320D03*
X452120Y147320D03*
X113840Y20320D03*
X243840Y20320D03*
X246840Y50800D03*
X116840Y50800D03*
X492760Y165240D03*
X492760Y15240D03*
G54D14*
X218440Y81280D03*
X116840Y81280D03*
X264160Y188760D03*
X264160Y238760D03*
G54D15*
X142240Y146040D03*
X142240Y240040D03*
X142240Y193040D03*
G54D16*
X604520Y111760D03*
X604520Y137160D03*
X604520Y162560D03*
X543560Y25400D03*
X543560Y50800D03*
X543560Y76200D03*
G54D17*
X469900Y124460D03*
X472440Y68580D03*

M02*
